<svg xmlns="http://www.w3.org/2000/svg" width="1444" height="899" fill="none"><path fill="#5A54FF" d="M979 878v-5l4-1c5 1 9 3 12 7v-16l2-3c2 0 3 2 4 3l5 13c2-5 5-10 9-13l2-2c2 0 3 3 3 5-1 9-2 29-13 30-11 2-24-9-28-18Z"/><path fill="#F44E4E" d="M782 882h2c4 1 8 4 9 8l3-11 3-4h4l1 3-1 10c5-6 12-13 20-15l3 1c2 1 1 3 0 5-5 8-16 17-25 19-5 1-26-9-19-16Z"/><path fill="#E3E5FC" d="M674 801c265 0 480-20 480-44s-215-44-480-44c-266 0-481 20-481 44s215 44 481 44Z"/><path fill="#FDC510" d="M771 677c7-1 12-8 18-14 5-5 13-9 18-4 7 7 4 23 11 29 19-1 56-13 68 2 29 38 24 13 42 22l3 3c2 4-3 8-6 9-35 9-71 5-106 2-18-2-35-5-52-2-12 1-26 7-38-1-14-9-25-38-16-57 17-37 40 12 58 11Z"/><path fill="#fff" d="M776 714h-2v-3l23-34a2 2 0 0 1 3 2l-23 34-1 1Zm63 33h-1v-3l27-49a2 2 0 0 1 3 2l-27 49-2 1Z"/><path fill="#fff" d="m858 714-2-1-11-16a2 2 0 0 1 3-2l11 16a2 2 0 0 1-1 3Z"/><path fill="#E3E5FC" d="M1056 823c1 2 4 5 5 3l1-2c1-8 1-18 7-24l7 14c4-13 8-26 18-34v17l1 3c2 2 4 0 5-2 4-6 6-14 12-18 1-1 2-2 3-1l2 2c1 6-3 11-6 16-3 6-5 12-5 19l10-9c2-2 6-3 7-1v5l-7 9c-2 3-4 7-2 10 4-3 9-5 14-5-8 4-8 16-14 23-10 12-39 19-53 10-7-5-10-13-12-20-1-5-2-11 0-15 3-7 6-7 7 0Z"/><path fill="#5A54FF" d="M59 640c-3-5-7-11-7-17-1-23 40-30 40-53 1-13-12-21-21-30s-15-26-4-33c3-2 7-2 9-4 10-5 12-18 9-28-4-10-12-18-17-28-23-35-14-81-5-122 2-7 7-17 15-15 5 1 7 6 8 11l21 58c3 8 7 18 16 19 18 2 21-31 39-33 12 10 12 27 11 42-2 15-4 30 3 44 7 13 29 19 37 7 12 17-7 41 3 59 6 12 23 15 31 26 7 9 6 22 5 33-6 55-9 125-76 142-48 12-93-44-117-78Z"/><path fill="#F44E4E" d="M21 681c-2-2-5-5-5-8 0-7 8-10 15-12 7-1 16-6 14-13l-3-4c-7-7-15-12-21-19-6-8-9-19-4-27l5-6c2-5-2-10-5-14-9-10-31-57-4-61 8-1 16 4 22 11l13 22c17 27 48 23 60 56 1 4 3 7 6 8 8 3 14-16 20-3 13 25 25 59 14 86-6 17-22 37-42 33-32-7-63-26-85-49Z"/><path fill="#fff" d="m109 707-2-1-57-112 1-3 3 1 56 112a2 2 0 0 1-1 3Zm73 17-2-1-56-276 2-2c1-1 2 0 2 1l56 276-2 2Z"/><path fill="#fff" d="M145 533h-1l-1-3 24-53 2-1c1 1 2 2 1 3l-24 53-1 1Zm21 100-1-1-1-2 24-53 3-1 1 3-24 53-2 1Zm-15-46-1-1-51-24-1-2c0-1 1-2 2-1l52 24a2 2 0 0 1-1 4Z"/><path fill="#FDC510" d="M65 681c25-9 52 3 76 15 25 12 54 23 77 11 30-16 34-23 66-4 21 12 81 31 104 35 17 4 167 33 39 29l-111-5c-76-3-153-11-229-8-17 1-57 18-72 4-20-18 32-70 50-77Z"/><path fill="#fff" d="M92 673h-1c-1 0-2-1-1-2l7-39 3-2 1 3-8 38-1 2Zm190 96h-1l-30-45 1-3 2 1 30 44-1 3h-1Zm-167-7h-2l-34-38a2 2 0 0 1 3-3l34 38a2 2 0 0 1-1 3Z"/><path fill="#fff" d="M99 745a2 2 0 0 1-1-3l15-20 3-1v3l-15 21h-2Zm168 2-34-17c-1 0-2-1-1-2 0-1 1-2 2-1l34 16c1 1 2 2 1 3l-2 1Zm-7-12h-1c-1-1-2-2-1-3l8-20c0-1 1-2 2-1 1 0 2 1 1 2l-8 21-1 1Z"/><path fill="#A7ADFF" d="M1249 630c0-3 0-8 2-10 7-6 18 4 26 0 4-3 4-8 3-13l-4-14c0-13 14-21 22-32 8-9 11-23 22-29 3-2 7-3 10-1 6 2 6 11 4 17-3 17-7 36 3 50 4 5 11 10 10 16 0 7-8 11-11 18-3 8 3 17 1 25-3 9-13 13-18 20-2 4-3 8-6 11-12 14-33 3-42-8a91 91 0 0 1-22-50Z"/><path fill="#E3E5FC" d="M1028 616c25-11 53 5 78 19 24 14 53 28 77 13 29-19 33-26 65-3 21 14 81 37 105 42 17 5 167 41 39 35l-111-8c-76-4-153-15-229-11-17 0-57 20-72 4-20-23 31-83 48-91Z"/><path fill="#5A54FF" d="M1263 600c3-6 6-14 0-17l-8-1-26 3c-3-11 3-22 11-30s19-14 26-22c7-9 11-21 6-31-6-10-24-11-28-1l24-57c3-5 4-12-1-15h-8c-13 3-26 11-34 20 10-17-4-38-20-50-15-11-37-20-52-9-17 14-5 40-8 62 0 4-2 8-5 11-6 4-14 2-21 5-13 5-12 21-10 34l20 105-35-26c-5-4-12-8-18-6-4 2-6 5-7 9-5 16 12 29 21 43 17 30-5 120 59 84 47-26 88-67 114-111Z"/><path fill="#fff" d="M1289 680h-1l-1-3 20-76 2-1 2 2-20 76-2 2Z"/><path fill="#fff" d="m1298 642-2-1 1-3 24-11a2 2 0 1 1 1 4l-23 10-1 1Zm-6 27-2-1-17-33a2 2 0 0 1 3-2l17 34a2 2 0 0 1-1 2Zm-143 25h-1l-1-3 53-214 2-1 1 2-52 214-2 2Z"/><path fill="#fff" d="m1183 554-1-1v-2l47-33a2 2 0 0 1 2 3l-47 33h-1Zm-26 115h-1v-3l59-44a2 2 0 0 1 3 3l-60 44h-1Z"/><path fill="#F44E4E" d="M1240 673c-7-2-17-3-24 1-10 5-12 18-23 23-13 5-29-7-44-5-13 2-21 14-34 15-7 0-13-2-19-3-5-2-12-3-18-1-5 2-8 9-3 13l8 1c47 4 96 6 144 4 13-1 37-1 42-14 6-14-15-29-29-34Z"/><path fill="#fff" d="M1227 722h-1l-1-2 8-30 3-1 1 2-9 30-1 1Z"/><path fill="#fff" d="m1231 706-1-1-5-8a2 2 0 0 1 3-2l5 8a2 2 0 0 1-2 3Z"/><path fill="#978CFF" d="M809 728H543c-8 0-15-6-15-14v-3c0-8 7-15 15-15h266c8 0 15 7 15 15v3c0 8-7 14-15 14Z"/><path fill="#978CFF" d="M726 728H626c-7 0-12-5-12-11V597c0-6 5-11 12-11h100c7 0 12 5 12 11v120c0 6-5 11-12 11Z"/><path fill="#A7ADFF" d="M1139 629H213c-17 0-31-14-31-32V33c0-18 14-32 31-32h926c17 0 32 14 32 32v564c0 18-15 32-32 32Z"/><path fill="#EFF0FC" d="M229 15c-17 0-31 14-31 32v201c98-79 197-156 297-233H229Z"/><path fill="#E3E5FC" d="M1119 15H495C395 92 296 169 198 248v286c0 18 14 32 31 32h890c18 0 32-14 32-32V47c0-18-14-32-32-32Z"/><path fill="#4B369D" d="M674 602a9 9 0 1 0 0-17 9 9 0 0 0 0 17Z"/><path fill="#978CFF" d="m1013 352-4-1-274-241a6 6 0 1 1 7-8l275 241a6 6 0 0 1-4 9Z"/><path fill="#978CFF" d="M700 151a9 9 0 0 1-6-16l76-76a9 9 0 0 1 13 13l-76 76c-2 2-4 3-7 3Z"/><path fill="#4B369D" d="M913 328h3l39 530-3 1zm87 0h4l39 530-4 1z"/><path fill="#4B369D" d="M918 378h88v4h-88zm5 47h87v4h-87zm4 46h88v4h-88zm0 46h88v4h-88zm5 47h87v4h-87zm4 46h88v4h-88zm0 47h88v3h-88zm5 46h87v4h-87z"/><path fill="#D4A79A" d="m1012 276 1 26 20 8s-12-18-10-34c2-15-11 0-11 0Z"/><path fill="#EAC2AB" d="M994 223s-5 6 0 24c4 18 11 33 16 32 15-3 20-13 26-22 6-11-7-38-7-38l-12-7-23 11Z"/><path fill="#4B369D" d="M997 209c-10 9-13 23-13 36 0 7 0 14 2 20l8 21c1 1 2 2 1 3l-2 4c-5 9-5 21 1 29 2 3 4 6 8 6 4 1 10 0 12 4v6c1 3 5 4 9 3h9c4 2 4 8 8 10l4 1c7 0 10 5 17 5 3 0 9-5 12-7 2-1 3-5 1-7s-6-1-8-4 5-8 3-12l-2-5 2-5c2-6-3-11-8-15s-10-8-10-14c0-8 8-13 8-20 1-7-6-14-6-22l5-13c0-5-3-10-6-14l-8-9c-5-3-8-1-13-2-4-1-7-5-11-6-8-1-17 2-23 7Z"/><path fill="#D4A79A" d="m1076 569 24 25 9-8-27-24s-5 4-6 7Z"/><path fill="#F3AA02" d="m1087 639 16-18c10-13 20-27 19-31 0-4-15-17-18-12-3 4 2 10-9 14-9 4-3 15-8 28s-7 19 0 19Z"/><path fill="#4B369D" d="M1059 508c2 9 3 20 8 27 8 12 21 15 34 18-4 11-11 21-17 30-5 7-11 14-17 19-2-9-5-18-9-26-3-7-8-14-12-20-13-20-20-44-26-68-3-12-27-108 5-86 23 15 17 42 34 106Z"/><path fill="#EAC2AB" d="m1001 605-7 34 11 3 5-35s-5-3-9-2Z"/><path fill="#FDC510" d="M949 652s8 3 24 4c15 1 33 2 36-1 3-2 6-22 0-22-5 0-7 8-16 1-8-6-15 5-28 8-14 3-20 4-16 10Z"/><path fill="#5A54FF" d="m972 613 4-3c11-8 10-22 8-34-2-28 4-56 8-83 3-27 2-55-2-81-2-10-4-25 10-21 7 1 14 2 21 1 4-1 0-2 4-1 13 5 3 18 0 26-6 17 0 49-2 66-3 26-5 47-3 72l2 37c1 7 6 23 1 29-6 9-30 0-38-1-6-1-15-3-13-7Z"/><path fill="#EAC2AB" d="M971 326c-12 9-27 24-38 6-6-9-10-20-15-29-4-10-9-20-8-31l-2-29c-1-3-13-14-14-10 0 5 7 24-2 15-3-3-1 2 0 8s9 13 9 13c7 32 5 70 40 86 10 4 26-10 33-15l32-20-10-9-3-2-3 1-15 12-4 4Z"/><path fill="#D7384E" d="M988 397c0-1-2-32 2-52s0-37 15-48c15-12 27 4 31 12s1 51 1 65c1 14 0 11 3 27 2 9 21 32-3 26-8-3-25-4-31-6-7-2-14-4-19-9-1-2 1-15 1-15Z"/><path fill="#F44E4E" d="M979 312s28-29 39-16c10 14-27 41-27 41l-17-22 5-3Z"/></svg>