<svg xmlns="http://www.w3.org/2000/svg" viewBox="0 0 1799.6 1200.9"><style>.st0{fill:#e3e5fc}.st1{fill:#a7adff}.st2{fill:#fff}.st3{fill:#4b369d}.st4{fill:#d7384e}.st5{fill:#fdc510}.st6{fill:#978cff}.st7{fill:#5a54ff}.st8{fill:#eac2ab}.st9{fill:#d4a79a}.st11{fill:#f44e4e}</style><g id="UI"><g id="Infographic_Desktop"><ellipse cx="859" cy="1071.9" class="st0" rx="480.5" ry="18.7"/><path d="M1299.2 868.5H383a45 45 0 01-45-45V155.2a45 45 0 0145-45h916.2a45 45 0 0145 45v668.3a45 45 0 01-45 45z" class="st1"/><path d="M1271.1 805.3H406.7a45 45 0 01-45-45V188.2a45 45 0 0145-45h864.4a45 45 0 0145 45v572a45 45 0 01-45 45zM894.3 834h-70.6a3.1 3.1 0 01-3.1-3.2c0-1.7 1.4-3.1 3-3.1h70.7c1.7 0 3 1.4 3 3 0 1.8-1.3 3.2-3 3.2z" class="st0"/><circle cx="391.7" cy="128.7" r="7" class="st0"/><circle cx="421.9" cy="128.7" r="7" class="st2"/><circle cx="452.4" cy="128.7" r="7" class="st3"/><path d="M1183.2 526.7H1012a8.4 8.4 0 01-8.4-8.3c0-4.6 3.8-8.4 8.3-8.4h171.2a8.4 8.4 0 010 16.7zM1183.2 565H1012a8.4 8.4 0 01-8.4-8.4c0-4.6 3.8-8.3 8.3-8.3h171.2c4.6 0 8.3 3.7 8.3 8.3 0 4.6-3.8 8.4-8.3 8.4zM1183.2 603.2H1012a8.4 8.4 0 01-8.4-8.4c0-4.6 3.8-8.3 8.3-8.3h171.2c4.6 0 8.3 3.7 8.3 8.3 0 4.6-3.8 8.4-8.3 8.4zM1183.2 646.3H1012a8.4 8.4 0 01-8.4-8.4c0-4.6 3.8-8.3 8.3-8.3h171.2c4.6 0 8.3 3.7 8.3 8.3 0 4.6-3.8 8.4-8.3 8.4zM1183.2 684.5H1012a8.4 8.4 0 01-8.4-8.3c0-4.6 3.8-8.4 8.3-8.4h171.2c4.6 0 8.3 3.8 8.3 8.3 0 4.6-3.8 8.4-8.3 8.4zM1183.2 722.7H1012a8.4 8.4 0 01-8.4-8.3c0-4.6 3.8-8.4 8.3-8.4h171.2a8.4 8.4 0 010 16.7zM490.4 428h353.9a45 45 0 0045-45V255a45 45 0 00-45-44.9h-354a45 45 0 00-44.9 45V383a45 45 0 0045 45z" class="st2"/><g><path d="M455 722.8a8.4 8.4 0 01-8.4-8.4V521.1c0-4.7 3.8-8.5 8.4-8.5 4.7 0 8.5 3.8 8.5 8.5v193.3c0 4.7-3.8 8.4-8.5 8.4zM495.3 722.8a8.4 8.4 0 01-8.4-8.4v-86.3c0-4.6 3.8-8.4 8.4-8.4 4.6 0 8.4 3.8 8.4 8.4v86.3c0 4.7-3.8 8.4-8.4 8.4zM535.6 722.8a8.4 8.4 0 01-8.4-8.4V545.8c0-4.6 3.8-8.4 8.4-8.4 4.6 0 8.4 3.8 8.4 8.4v168.6c0 4.7-3.8 8.4-8.4 8.4zM575.8 722.8a8.4 8.4 0 01-8.4-8.4v-62c0-4.5 3.8-8.3 8.4-8.3 4.7 0 8.5 3.8 8.5 8.4v62c0 4.6-3.8 8.3-8.5 8.3zM616.1 722.8a8.4 8.4 0 01-8.4-8.4V610c0-4.6 3.8-8.4 8.4-8.4 4.6 0 8.4 3.8 8.4 8.4v104.4c0 4.7-3.8 8.4-8.4 8.4zM656.4 722.8a8.4 8.4 0 01-8.4-8.4v-31c0-4.5 3.8-8.3 8.4-8.3 4.6 0 8.4 3.8 8.4 8.4v31c0 4.6-3.8 8.3-8.4 8.3z" class="st4"/></g><g><path d="M503 362A73.1 73.1 0 00605.2 378l-86-118.3A73.2 73.2 0 00503 361.9zM526.9 254.2l39.4 54.2 55.3-40.2a68.4 68.4 0 00-94.7-14z" class="st1"/><path d="M647.2 263.6l-1.1-1.4-74.2 53.9 55 75.8a91.8 91.8 0 0020.3-128.3z" class="st5"/></g><path d="M709.4 266.5a9 9 0 018.9-9h119.3a9 9 0 019 9 9 9 0 01-9 8.9H718.3a9 9 0 01-9-9z" class="st5"/><path d="M709.4 309a9 9 0 018.9-8.8h40.5a9 9 0 018.9 8.9 9 9 0 01-9 8.9h-40.4a9 9 0 01-9-9z" class="st1"/><g><path d="M761 669.4a80.3 80.3 0 010-160.5 80.3 80.3 0 010 160.5zm0-153a72.8 72.8 0 10.2 145.7 72.8 72.8 0 00-.2-145.7z" class="st6"/><path d="M761 643.2a54 54 0 11.2-108.2 54 54 0 01-.2 108.2zm0-100.6a46.6 46.6 0 10.1 93.2 46.6 46.6 0 000-93.2z" class="st6"/><path d="M761 620.1a31 31 0 11.1-62 31 31 0 010 62zm0-54.4a23.5 23.5 0 100 47 23.5 23.5 0 000-47z" class="st6"/><path d="M757 595.9l.9-19a3.8 3.8 0 017.4.2l-.2 5.3 124.3-73a3.7 3.7 0 013.8 6.5l-136.2 80z" class="st5"/><path d="M773.8 596.6H761a3.8 3.8 0 010-7.5h12.8a3.8 3.8 0 010 7.5z" class="st5"/></g><g><path d="M988.6 429.2c-.6 0-1.2-.1-1.8-.5a3.7 3.7 0 01-1.5-5l30.8-56 24.6 23.5 16.3-26 14.4 8.7 34.4-85.3 24 42.5 22.5-33.4 19 23.3 38.4-70.8c1.2-2.2 2.9-4.7 4.6-7.3 1.4-2.2 2.9-4.4 4.2-6.7l-4.4 2c-2.6 1.2-5 2.4-7.3 3.1-2 .7-4-.4-4.7-2.3-.7-2 .4-4.1 2.3-4.8a68 68 0 006.5-2.8c4.8-2.2 9.7-4.5 14.1-4.8l5.3-.5-1.4 5.2c-1.4 5-5 10.4-8.4 15.7-1.6 2.5-3.1 4.8-4.2 6.8l-43.8 80.6-19.7-24.1-23.7 35-22.2-39.5-31.9 79-15.6-9.4-17.3 27.5-24.1-23.1-26.1 47.4c-.7 1.3-2 2-3.3 2z" class="st7"/><path d="M1227.5 252.8c-2 0-3.8-1.7-3.8-3.8v-18.7a3.8 3.8 0 017.5 0V249c0 2-1.6 3.8-3.7 3.8z" class="st7"/><path d="M984.9 451c-2 0-3.8-1.6-3.8-3.7V208.1c0-2 1.7-3.7 3.8-3.7 2 0 3.7 1.7 3.7 3.7v239.2c0 2-1.7 3.8-3.7 3.8z" class="st1"/><path d="M962 429.2c0-2 1.8-3.8 3.8-3.8H1205c2 0 3.8 1.7 3.8 3.8 0 2-1.7 3.8-3.8 3.8H965.8c-2 0-3.7-1.7-3.7-3.8z" class="st1"/><path d="M1123.7 263.3H1054c-6.8 0-12.5-5.7-12.5-12.5 0-6.9 5.7-12.5 12.5-12.5h69.7c6.8 0 12.5 5.6 12.5 12.5 0 6.8-5.7 12.5-12.5 12.5z" class="st4"/><g><path d="M1171 318h2.8v3.8h-2.8zM1173.8 311h-2.8v-7.1h2.8v7zm0-14.2h-2.8v-7h2.8v7zm0-14h-2.8v-7.1h2.8v7zm0-14.2h-2.8v-7h2.8v7zM1173.8 254.5h-2.8v-2.3h-2.4v-2.8h5.2zM1149.5 249.4h9.6v2.8h-9.6zM1136.2 249.4h3.8v2.8h-3.8z" class="st3"/></g></g><path d="M1174.1 338.5h-3.5a8.5 8.5 0 01-8.5-8.5v-3.5c0-4.7 3.9-8.5 8.5-8.5h3.5c4.7 0 8.5 3.8 8.5 8.5v3.5c0 4.6-3.8 8.5-8.5 8.5z" class="st4"/></g></g><g id="Characters"><g id="Man"><path id="Arm_1_" d="M1437 510s11 52.7 10.1 74.2-19.6 53.7-19.6 53.7l-12.1-128h21.6z" class="st8"/><g id="Head"><path id="Neck" d="M1370.8 413.3l2.4 45.4 35.6 13.7s-21.4-31.3-17.8-59.1c3.6-27.9-20.2 0-20.2 0z" class="st9"/><path id="Face" d="M1339 320.3s-7.7 10.3-.2 41.7c7.6 31.5 19.8 58.4 29.3 56.5 26.2-5.3 35.4-23.8 44.5-39.7 11.1-19.5-11-67-11-67l-20.9-11.3-41.7 19.8z" class="st8"/><path id="Hair" d="M1311.1 311.9c-2.3-7.4 1.7-16.9 7.1-21.4a10 10 0 017.3-2.6c2 .2 3.9 1.1 5.8.8 5.9-1 6.6-9.6 12-11.3 4-1.3 7.9 2.3 12 3.3 3.1.7 6.3-.1 9.5-.8 8.8-1.8 17-6 26-7.1 7.6-1 15.6-.1 22.4 3.6 7.2 3.9 12.4 11 15.2 19.2 1.6 4.8 2.1 10.3.8 15.3 1-4.1 8.5.3 9.7 2 4.7 6.3 5.6 20.2 3 27.6-2 5.9-5.2 11-7 17-2.2 7.1-3 15-7 21.3-4.5 7.3-28.8 31-36.5 29 2.3-6.5-9.3-12.5-8.8-19.5.4-7 4.8-43.6-29.8-50.5-13.7-2.7 3.9-7.2-9.9-6.6-6.5.2-13-1-19.2-3.5-4.7-2-9.3-9-12-14.2l-.6-1.6z" class="st3"/><path id="Ear" d="M1380.4 359.3s14.4-12.3 13.3 4.3-14.5 21.5-14.5 21.5l1.2-25.8z" class="st8"/></g><g id="Leg_2_"><path id="Skin_1_" d="M1418.8 988.2l-8.8 60 19.7 5 5.5-63.1s-10.4-4.3-16.4-1.9z" class="st9"/><path id="Shoe_1_" fill="#f3aa02" d="M1332.6 1077s14.8 3.9 42.6 4 58.8-1 64.1-5.5c5.3-4.5 6.5-39.7-2.7-39s-12 14.2-29 3.4c-14.7-9.2-24.4 10.8-48.3 17.7-24 6.8-33.6 9.5-26.7 19.4z"/><path id="Leg_3_" d="M1369.6 1006.7c.8-2.4 3.1-4.4 5-6.4 18.2-18.1 11.7-43.4 7-65.6-11-52.7-7-106.8-7.7-160.1-.8-52.1-9.2-103.9-23.6-153.7-5.3-18-12.7-46.1 13.7-42.6 12.5 1.7 24.7.4 36.8-2.9 6.4-1.6-.4-3.5 6.4-1.6 23 6.2 36.2 72.6 32.8 89.1-7 32.8-9.3 43.3-8.4 77.5 1.2 48.5-2.7 97.4 5.9 145 4.2 23.3 8.8 46.6 13.4 69.8 2.6 13.6 15.2 42.9 9 55.7-8.4 17.7-52.5 6.3-66.9 7-10.8.4-26-3-23.4-11.2z" class="st3"/></g><g id="Leg"><path id="Skin" d="M1374.1 990.3l-13 59.2 19.3 6.3 10-62.5s-10.1-5-16.3-3z" class="st8"/><path id="Shoe" d="M1281.9 1072.8s14.5 5 42.2 7c27.8 2 58.7 3 64.3-1 5.7-4.2 9.3-39.1 0-39.1-9.2 0-12.8 13.3-29.1 1.4-14-10.2-25.1 9-49.5 14.2-24.3 5.1-34.1 7.2-27.9 17.5z" class="st5"/><path id="Leg_1_" d="M1323.8 1006.9c.9-2.2 3.3-3.8 5.4-5.5 19.4-15.5 14.7-39 11.6-59.6-7.4-48.8.5-98 3.4-146.9 2.9-47.6-1.9-95.5-12.8-142-4-16.8-9.4-42.9 16.7-38 12.4 2.4 24.6 2 37-.2 6.4-1.2-.2-3.3 6.4-1.2 22.6 7.2 31.4 31.3 26.7 46.1-9.2 29.6-12.5 76.5-14 107.9-2.2 44.4-9.5 88.8-4.3 132.9 2.6 21.6 5.6 43 8.5 64.6 1.7 12.6 12.2 40.1 5.1 51.5-9.7 15.6-52.8 2.4-67.2 2-10.8-.2-25.7-4.3-22.5-11.6z" class="st7"/></g><path id="Arm" d="M1298.6 500.2c-9.3 7-19.3 13.3-29.7 18.7-8 4.2-30 18.2-38.5 9.6-2.5-2.5-3.6-6-4.5-9.5-5.2-20.1-12.9-39.6-20.4-59-6.7-17.4-14.7-35.7-14-54.7.6-19.4-.6-45.6-2.4-50.4-1.9-4.7-17-32.7-17.3-24-.3 8.7 14.3 32.6 7.6 31.8-6.6-1-20.9 4.6-19.2 14.7a178.7 178.7 0 0012.3 32c4.7 19.6 9.6 39.1 14.7 58.7a1200 1200 0 0012.1 43.6c4.3 14 8.2 29.3 20.6 38.6 1.6 1.3 3.3 2.3 5.1 3.2 14.7 7 31.9-.3 46.1-8.1 30.6-16.7 59.5-36 88.7-54.9l-17.1-16.8c-1.4-1.3-2.9-2.8-4.8-3-2.2-.4-4.3.9-6.1 2.2-9.1 6.4-17 14.2-25.6 21.3l-7.6 6z" class="st8"/><g id="Body"><path d="M1397.8 515.8s-30-50.4-7.1-59.8 46.3 54 46.3 54l-37.8 14.8-1.4-9z" class="st11"/><path d="M1328.3 625c0-2-3.4-56.2 4.2-90.8 7.6-34.7 0-64.6 26.4-85.4 26.3-20.8 47.8 7 54.8 21.5 7 14.6 12.7 60.9 13.7 85.4 1 25 14.2 78 14.7 79 10.5 21.8 3.6 20.2 2.7 22.3-5.7 12.9-42.4 15.4-51.2 10.8-19.4-10-23.5-15.4-44.4-12.2-9 1.4-19-1.4-21.6-4.2s.8-26.4.8-26.4z" class="st4"/><path d="M1313.6 476.6s48.8-51.9 67.4-28.3c18.7 23.5-47.4 72.1-47.4 72.1l-30-39 10-4.8z" class="st11"/></g></g></g></svg>