<svg xmlns="http://www.w3.org/2000/svg" viewBox="0 0 1799.6 1200.9"><style>.st0{fill:#f44e4e}.st1{fill:#5a54ff}.st2{fill:#fae026}.st3{fill:#fff}.st4{fill:#978cff}.st5{fill:#a7adff}.st6{fill:#eff0fc}.st7{fill:#e3e5fc}.st8{fill:#4b369d}</style><g id="Nature"><g id="Plant"><path d="M1539 491.8c1.3 2.2 1.6 4.8 1.7 7.3.7 23-14.4 45.6-36 53.8-5 2-10.5 3.2-14.4 7-4 3.6-5.3 10.9-1 14 3 2.2 7 1.7 10.4 1.2l38.7-6.4A26.7 26.7 0 011523 598c-4.6 2-9.8 2.4-14.3 4.8s-8 7.7-6.2 12.3c1.8 4.3 7.6 6.8 7.2 11.4-.4 4.4-6 5.8-10.2 7.3-21.5 7.8-20.7 39.1-35.3 56.8-9.4 11.5-24.6 16.2-38.9 20.4-12.3 3.5-25.2 7.2-37.8 4.7-20.7-4-36-26.2-32.3-47 3.6-20.7 22-34.9 38.2-48.4 33.8-28.2 60.8-54.4 68.7-98 2.6-14.5 6.8-24.3 20-32.4 13.1-8.2 46.8-15.2 57 1.8z" class="st0"/><path d="M1344 650.4l29.5-38.4c29.1-37.8 58.6-76.4 75.4-121a129 129 0 009.7-55.4c-.3-3.8-1-8-4-10.6-4.9-4.4-12.6-1.8-18.5 1.2-17.5 9.1-34 20.3-48.9 33.3-.5-41.2 39.6-72.5 46.8-113.1 1.2-6.6 1.3-13.8-2.2-19.5a22.3 22.3 0 00-9.8-8.1c-13.3-6.2-29.4-2.5-41.6 5.6-12.2 8-21.2 20-30 31.6 12.3-15.6 20-34.7 22-54.4.8-8.2.3-17.3-5.1-23.5-9.2-10.4-27.2-6.1-37 3.8-19 19-18.2 49.5-17.5 76.3.6 26.9-2.4 58.2-25 73-2.6 1.7-5.7 3.3-7.3 6-3 5.6 1.3 12.5 6.7 15.7s12 4.3 17.2 7.6c12 7.6 14.3 24 13 38-1.3 14-5 28.5-.7 42 5.3 16.6 6.4 38 10.3 55 1.7 7.8 16.2 6.2 16.5 14.1.3 8 2.4 16.6 8.8 21.3 6.3 4.8 17.6 2.9 19.6-4.8" class="st1"/><path d="M1573 919c17.7-1.6 36.1-4 51.2-13.5 5.6-3.5 11.1-10.4 7.8-16.1a13.7 13.7 0 00-6-4.8 116.7 116.7 0 00-79-9.4c-10.5 2.5-21.6 6.4-31.6 2.5l67.8-38.2c4.4-2.5 9-5.1 11.8-9.4s2.9-10.6-1-13.9c-1.7-1.4-4-2-6.2-2.4a42.4 42.4 0 00-37.8 12.4 138.4 138.4 0 0027.3-63.2c.5-3.3.8-7-1-9.8-1.5-2.6-4.5-4-7.4-4.8a35 35 0 00-30 5.2c-10 7.3-15.2 19-22 29.4-6.7 10.2-17.1 20-29.4 19 13-19.3 19.6-43 18.4-66.3a42 42 0 00-6.7-23.3 31.3 31.3 0 00-27-11.4 50.6 50.6 0 00-27.7 11.7 75.6 75.6 0 00-23.3 82.5c2.6 7.2 6.3 14.8 3.7 22-1.8 5-6.4 8.4-10.9 11.3-30 19.5-67.4 51.2-28.9 85.6 10.4 9.3 21.3 9.6 34.6 9.3 21.7-.6 43.3-.5 65-.7 29.4-.2 58.9-1.2 88.2-3.8z" class="st2"/><path d="M1314.5 636.1h-.5c-1-.3-1.6-1.3-1.3-2.3 58.8-232.8 60-234 60.5-234.4.7-.8 1.9-.8 2.6 0 .6.6.7 1.5.3 2.2-2.1 5.8-40 154.8-59.8 233.1-.2.9-1 1.4-1.8 1.4z" class="st3"/><path d="M1339.8 536.3a1.9 1.9 0 01-.8-3.6l72.7-33.8c1-.4 2.1 0 2.5 1 .5.9 0 2-.9 2.4l-72.7 33.8-.8.2zM1438 649.9a1.9 1.9 0 01-1.7-2.6l47-113.6a1.9 1.9 0 113.4 1.5l-47 113.5c-.3.7-1 1.2-1.8 1.2zM1438 915c-.5 0-1-.2-1.4-.6-.7-.7-.7-1.9 0-2.6l78.9-82.1a1.9 1.9 0 012.7 2.6l-79 82c-.3.5-.8.6-1.3.6z" class="st3"/><path d="M1537.4 902.2a2 2 0 01-.4 0l-68.7-18a1.9 1.9 0 011-3.6l68.6 17.9a1.9 1.9 0 01-.5 3.7z" class="st3"/></g></g><g id="UI"><g id="Computer"><path d="M993.2 889.3H752a14.8 14.8 0 010-29.5h241.4c8 0 14.7 6.6 14.7 14.7s-6.6 14.8-14.8 14.8z" class="st4"/><path d="M917.8 889.3h-90.5c-6.3 0-11.5-5.2-11.5-11.5v-108c0-6.3 5.2-11.4 11.5-11.4h90.5c6.3 0 11.5 5.1 11.5 11.5v107.9c0 6.3-5.2 11.5-11.5 11.5z" class="st4"/><path d="M1294.2 798H450.9a31.8 31.8 0 01-31.7-31.8V254a31.8 31.8 0 0131.7-31.7h843.3a31.8 31.8 0 0131.7 31.7v512.3a31.8 31.8 0 01-31.7 31.7z" class="st5"/><path d="M462.6 235.6A28.6 28.6 0 00434 264v184.2c89.8-72 180.9-142.8 272.9-212.7H462.6z" class="st6"/><path d="M1279 235.6H707c-92 69.9-183.1 140.7-272.9 212.7v263.1a28.6 28.6 0 0028.5 28.5h816.6a28.6 28.6 0 0028.5-28.5V264a28.6 28.6 0 00-28.5-28.5z" class="st7"/><circle cx="870.8" cy="765.2" r="7.9" class="st8"/></g></g><g id="Nature_1_"><g id="Plant_6_"><path d="M182.4 905.9c-1.5-1.4-3-3-3.3-5-.2-2.5 1.7-4.7 3.8-6 5.5-3.6 12.3-3.8 18.6-5.5 6.3-1.7 13-6 13.4-12.4.9-13.2-21.7-24.3-30.1-31.3-6.1-5-12.4-10.3-15.9-17.4s-3.3-16.6 2.4-22c7.2-6.7 37.5-.9 45.5-6.6 10.3-7.5-57.6-26.9-1.1-34.9-12.5-33.2 24.3-22 32.5-13.7 5.3 5.4 19.5 22.5 26.2 19 3-1.6 18.5 2.4 20.7-.3 8.8-11.3-9.8-.4 2.5-7.5 14 27-6.6 64.1-8.4 92.3-1 14.1 16 15.8 16.5 31.1.3 9-3.4 17.7-7 26-4.9 10.9-10.5 22.6-21.2 27.8-9 4.3-19.7 3-29.4.7-24.3-5.8-47-17.8-65.7-34.4z" class="st1"/><path d="M285.3 956.5c-.8 0-1.5-.5-1.8-1.3L231.1 803a1.9 1.9 0 113.5-1.2L287.1 954a1.9 1.9 0 01-1.8 2.5z" class="st3"/><path d="M249.7 853a2 2 0 01-.7 0c-44.4-18.8-44.4-19.8-44.3-21.4a2 2 0 011.3-1.8c.9-.3 1.8.1 2.2.8 3.6 2.3 27.4 12.6 42.2 18.9 1 .4 1.4 1.5 1 2.4-.3.7-1 1.2-1.7 1.2z" class="st3"/><g><path d="M275.2 927.2a242482.4 242482.4 0 00-58.6-20.5l1.2-3.6c58.4 20.6 58.4 20.6 58.7 20.9.6.6.8 1.6.3 2.3-.4.6-1 .9-1.6.9z" class="st3"/></g></g><g id="Plant_5_"><path d="M620.5 876c4.3-3 8.9-6.9 9.2-12.1.3-5.6-5-10.5-10.6-11s-11 2.3-15.1 6.2c-4.5-18.1 29.1-27.9 26.3-46.4-8.9-3-19.5.3-25 7.8-6-14 3.3-29.7 12.8-41.7 9.6-12 20.4-25.9 17.5-40.9a29.8 29.8 0 00-24 7 26.2 26.2 0 01-2-22.9c1.8-4.5 4.9-8.8 4.2-13.5-1.5-9.7-15.3-10.2-24.8-8a44.8 44.8 0 00-40-45.7c-10-.6-22.3 5-21.9 15 .2 3.4 2 6.6 3.4 9.8a74.2 74.2 0 015.5 46.3c-3 13.8-9.4 29.1-1.7 40.9 2.5 3.8 6.2 6.6 8.6 10.5 2.9 4.5 3.6 10 4.3 15.3 3.5 27.5 0 78.3 18.2 101 17.9 22.2 57-6.7 73.6-19 26.4-19.7 47-50.3 45.8-83.1 0-2-.3-4.1-1.8-5.5-1.6-1.4-4-1.3-6.2-1l-29 3c4.7-25 33.7-42.3 32.6-67.7l-20.7-2.3a81 81 0 0013-29.4c1.6-10.7-2-23-11.4-28.3-13.8-7.8-30.5 2.3-43 12 27-21.2 49.4-162.4-13-131.4-7 3.5-15 6.2-22.2 3.6-17.4-6.1-1.5-34-10.6-46.7a24.5 24.5 0 00-13.7-8.7c-12.4-3.4-26.3-.2-36 8.2S508 519 509.6 531.8c1.2 9.4 5.7 18 9.9 26.5 13.4 27.5-100.5-46.4-57.3 55.3-17.2-11.6 50.1 11 29.6 14.4-20.5 3.3-39.4 21.2-38.3 42 1 19 17.1 33.4 31.4 46.2 14.3 12.8 29 29.5 26.1 48.4-1.6 10.9-9 20-13.1 30.2-4.2 10.1-4 24.2 5.6 29.6 5.6 3.1 13.1 2.4 18 6.7 4.4 3.9 5 10.5 5.8 16.4 3 20.4 16 48.3 35 58.8 18.1 9.9 42.4-18.5 58.2-30.2z" class="st2"/><path d="M614.4 910.7c-.9 0-1.6-.6-1.8-1.5l-45.9-242.1a1.9 1.9 0 013.7-.7l45.9 242.1a1.9 1.9 0 01-1.9 2.2z" class="st3"/><path d="M592 792c-.4 0-.7 0-1-.3a1.9 1.9 0 01-.6-2.6l42.4-68.5a1.9 1.9 0 113.2 2l-42.5 68.5c-.3.6-1 .9-1.6.9zM555.4 657.6c-.3 0-.7 0-1-.2a1.9 1.9 0 01-.6-2.6l42.5-68.5a1.9 1.9 0 113.2 2L557 656.8c-.4.5-1 .9-1.6.9z" class="st3"/></g><g id="Plant_2_"><path d="M910.7 770.6c2.2-1.5 4.5-2.6 7-3.2 10.3-2.7 21 2.7 29.4 9.3 8.5 6.6 16 14.7 25.8 18.8 4.6 2 11.7 1.6 12.5-3.3.4-2.3-1-4.4-2.3-6.3-13.4-19-31.4-33.2-47.9-49.3-4.4-4.3-9.2-10.2-6.8-15.9 2.6-6 11.5-6.3 17.3-3.1 5.7 3.1 10.2 8.5 16.3 11 1.6.7 3.3 1.2 5 .8 3.2-.6 5.3-4 5.4-7.3 1-20-24.2-33.9-32.9-49.6-7.4-13.4-7.4-29.6-6.1-44.9 1-12 3-24.6 10.8-33.6 1.8-2 4-3.9 6.8-4 10.2-.8 12.3 23 18.5 29.2 5.6 5.6 13.4 9.3 17.3 16.3 4.9 8.7 2 19.7 3.5 29.6 2.3 16 16.9 18.7 22 30.5l.2-27.4c0-3 .2-6.2 2.4-8.2 4.6-4.3 11.8 2.3 13.1 8.5 1.8 8.2.2 16.7.3 25 0 8.4 2.6 17.7 9.8 22 8 4.6 18 1.3 26.7-1.4 8.8-2.7 19.8-4.2 26 2.6a20 20 0 014.4 9.8c5.8 30-22.5 60-13.8 89.4 7.8 26.3 24.9 41.6-2.4 63.4a42.9 42.9 0 01-37.8 10c-11-2.5-20.9-8.2-30.8-13.5-20.4-11-43.5-15.6-65-24a83.5 83.5 0 01-39.2-27.5c-9.3-13.2-12-32-3.3-45.6 2-3.2 4.7-6 7.8-8.1z" class="st0"/><path d="M1061.4 890.8c-.7 0-1.4-.5-1.7-1.2l-93-226.5a1.9 1.9 0 013.6-1.4l92.8 226.5a1.9 1.9 0 01-1.7 2.5z" class="st3"/><path d="M1042.9 845.6h-.4l-92.5-20c-1-.2-1.6-1.2-1.4-2.2.2-1 1.2-1.6 2.2-1.4l92.5 19.9c1 .2 1.6 1.2 1.4 2.2-.2.9-1 1.5-1.8 1.5zM1008 760.5h-.6l-35.7-12.7a1.9 1.9 0 111.2-3.5l35.7 12.6a1.9 1.9 0 01-.6 3.6zM1018.6 786.4l-.5-.1c-1-.3-1.6-1.3-1.3-2.3l13.7-47.2c.3-1 1.3-1.6 2.3-1.3 1 .3 1.6 1.3 1.3 2.3l-13.7 47.2c-.2.8-1 1.4-1.8 1.4z" class="st3"/></g></g><g id="UI_1_"><g id="Line_1_"><path d="M310.1 688.4c-1 0-1.9-.9-1.9-2V681a1.9 1.9 0 113.8 0v5.6c0 1-.9 1.9-1.9 1.9zM310.1 671.3c-1 0-1.9-.8-1.9-1.8V658a1.9 1.9 0 113.8 0v11.5c0 1-.9 1.8-1.9 1.8zm0-22.8c-1 0-1.9-.9-1.9-1.9v-11.4a1.9 1.9 0 113.8 0v11.4c0 1-.9 1.9-1.9 1.9zm0-22.9c-1 0-1.9-.8-1.9-1.8v-11.4a1.9 1.9 0 113.8 0v11.4c0 1-.9 1.8-1.9 1.8zm0-22.8c-1 0-1.9-.8-1.9-1.9v-11.4a1.9 1.9 0 113.8 0v11.4c0 1-.9 1.9-1.9 1.9zm0-22.8c-1 0-1.9-.9-1.9-2v-11.3a1.9 1.9 0 113.8 0V578c0 1-.9 1.9-1.9 1.9zm0-22.9c-1 0-1.9-.8-1.9-1.9v-11.4a1.9 1.9 0 113.8 0v11.5c0 1-.9 1.8-1.9 1.8zm0-22.8c-1 0-1.9-.9-1.9-1.9V521a1.9 1.9 0 113.8 0v11.4c0 1-.9 1.9-1.9 1.9zm0-22.9c-1 0-1.9-.8-1.9-1.8V498a1.9 1.9 0 113.8 0v11.5c0 1-.9 1.8-1.9 1.8zm0-22.8c-1 0-1.9-.8-1.9-1.9v-11.4a1.9 1.9 0 113.8 0v11.4c0 1-.9 1.9-1.9 1.9zm0-22.8c-1 0-1.9-.9-1.9-2v-9.4l-.1-1.8c-.1-1 .7-2 1.7-2s2 .7 2 1.8c0 1 .2 1.7.2 1.7v9.8c0 1-.9 1.9-1.9 1.9zm.6-22.8h-.3c-1-.3-1.7-1.3-1.5-2.3 1-4.2 2.4-8 4.5-11.2a1.9 1.9 0 013.1 2 30 30 0 00-4 10 2 2 0 01-1.8 1.5zm12.2-18.6a1.9 1.9 0 01-1-3.5c3.2-2 7-3.5 11.1-4.5 1-.3 2 .4 2.3 1.4.2 1-.4 2-1.5 2.2-3.7.9-7 2.3-9.9 4-.3.3-.6.4-1 .4zm21.9-5.5a1.9 1.9 0 010-3.8l11.3-.2c1.3 0 2 .8 2 1.8s-.9 2-1.9 2c-3.8 0-7.6 0-11.4.2zm57-.3h-11.4c-1 0-1.9-1-1.8-2s1-1.7 1.8-1.8H402c1 .1 1.8 1 1.8 2s-.8 1.8-1.8 1.8zm-34.2 0c-1 0-1.9-.9-1.9-2 0-1 .8-1.8 1.9-1.8H379a1.9 1.9 0 110 3.7h-11.4zM419 419l-5.7-.2c-1 0-1.9-.9-1.8-1.9 0-1 1-1.8 1.9-1.8l5.6.1a1.9 1.9 0 010 3.8z" class="st8"/><g><path d="M882.2 894.9c-1 0-1.9-.8-1.9-1.8l-.1-5.6c0-1 .7-2 1.8-2 1 0 1.9.8 2 1.9v5.6c0 1-.8 1.9-1.8 1.9zM852.4 978.7c-2.6 0-4.3-.3-4.3-.3h-5a1.9 1.9 0 110-3.7h5.2c.3 0 2.6.3 6 .2 1 0 1.8.8 1.9 1.8 0 1-.8 2-1.8 2h-2zm-20.4-.2H821a1.9 1.9 0 110-3.8H832a1.9 1.9 0 110 3.8zm-22.2 0h-11.2a1.9 1.9 0 110-3.8h11.2a1.9 1.9 0 110 3.8zm-22.3 0h-11.1a1.9 1.9 0 110-3.8h11.1a1.9 1.9 0 110 3.8zm-22.3 0h-11a1.9 1.9 0 110-3.8h11a1.9 1.9 0 110 3.8zm-22.2 0h-11.1a1.9 1.9 0 110-3.8h11a1.9 1.9 0 110 3.8zm-22.3 0h-11.1a1.9 1.9 0 110-3.8h11.1a1.9 1.9 0 110 3.8zm-22.3 0h-11a1.9 1.9 0 110-3.8h11a1.9 1.9 0 110 3.8zm-22.2 0H665a1.9 1.9 0 110-3.8h11a1.9 1.9 0 110 3.8zm-22.3 0h-11.1a1.9 1.9 0 110-3.8h11.1a1.9 1.9 0 110 3.8zm-22.2 0h-11.2a1.9 1.9 0 110-3.8h11.2a1.9 1.9 0 110 3.8zm-22.3 0h-11.1a1.9 1.9 0 110-3.8h11.1a1.9 1.9 0 110 3.8zm-22.3 0H576a1.9 1.9 0 110-3.8h11.1a1.9 1.9 0 110 3.8zm-22.2 0h-11.2a1.9 1.9 0 110-3.8H565a1.9 1.9 0 110 3.8zm-22.3 0h-11.1a1.9 1.9 0 110-3.8h11.1a1.9 1.9 0 110 3.8zm-22.3 0h-11a1.9 1.9 0 110-3.8h11a1.9 1.9 0 110 3.8zm-22.2 0h-11.2a1.9 1.9 0 110-3.8h11.2a1.9 1.9 0 110 3.8zm-22.3-.8h-.3c-4.3-.7-8-1.8-11.2-3.2-.9-.4-1.3-1.6-.9-2.5.5-1 1.6-1.3 2.5-.9 2.8 1.3 6.2 2.3 10.2 2.9a1.9 1.9 0 01-.3 3.7zm389.4-1c-.8 0-1.5-.6-1.8-1.3-.3-1 .2-2 1.2-2.4 3.5-1.2 6.4-3 8.7-5.3a1.9 1.9 0 012.7 2.6 27 27 0 01-10.8 6.3zm-408-9.4c-.7 0-1.4-.5-1.7-1.2l-.9-3v-8.7a1.9 1.9 0 113.8 0v8.4c0 .5.2 1.2.5 1.9a1.9 1.9 0 01-1.7 2.6zm423.2-5.8l-.6-.1c-1-.3-1.5-1.4-1.2-2.4 1-2.8 1.5-6 1.6-9.5v-.9c0-1 1-1.8 2-1.8s1.8.9 1.7 2v.8a37 37 0 01-1.8 10.6c-.2.8-1 1.3-1.7 1.3zm1.9-22.1c-1 0-1.9-.9-1.9-1.9l.1-11.1c0-1 .9-1.9 2-1.9 1 0 1.8.9 1.8 2l-.1 11c0 1-.9 1.9-1.9 1.9zm.1-22.3c-1 0-1.8-.8-1.8-1.8l-.1-11.1c0-1 .8-2 1.8-2s2 .9 2 1.9v11.2c0 1-.8 1.8-1.9 1.8zM456.5 945c-1 0-1.9-.8-1.9-1.8v-5.7a1.9 1.9 0 113.8 0v5.7c0 1-.9 1.8-2 1.8z" class="st8"/></g></g><g id="Button_1_"><path d="M640.2 461.3h-216a44.8 44.8 0 010-89.3h216c24.5 0 44.6 20 44.6 44.6s-20 44.7-44.6 44.7z" class="st8"/><path d="M634.4 397c.9-.2 1.8-.2 2.7-.2a21.7 21.7 0 01-.9 43.4l.1-5.2a16.5 16.5 0 10-1.4-32.9l-.5-5.2z" class="st3"/><path d="M629.2 437.5l8.3 5 .2-9.7zM626 439.8c-.9.1-1.8.2-2.7.1a21.7 21.7 0 01.9-43.4l-.1 5.2a16.5 16.5 0 101.4 33l.5 5.1z" class="st3"/><path d="M631.2 399.3l-8.2-5-.2 9.6z" class="st3"/></g><g id="Laptop_1_"><path d="M1497.2 940.3c-1.3.6-3.3 1-6.3 1-79.9 0-159.7 0-239.6.2-40 0-80-.2-120-.1a4221.6 4221.6 0 00-90.9 1.2c-7.4.2-16.4 1.5-23.5-1.5-2.4-1-4.7-2.5-5.6-5.1-.2-.6-.2-1.2-.1-1.9.7-5.3 9-14.4 12.2-18.8 6.7-9.2 13.5-19.1 25.4-22.3 7-1.8 14.3-1.8 21.5-1.8 126.3 0 252.6.7 379 1.1 7.9 0 17.7 1.2 23.2 7.3 7 7.6 13.1 16 18.8 24.6 3.4 5.1 11.6 13.2 5.9 16z" class="st4"/><path d="M1431.7 897.7h-356a45 45 0 01-45-45v-246a45 45 0 0145-45h356a45 45 0 0145 45v246a45 45 0 01-45 45z" class="st5"/><path d="M1076.2 576.3c-19.3 0-35 15.7-35 35V795a4643.2 4643.2 0 00333.3-218.7h-298.3z" class="st6"/><path d="M1429.1 576.3h-54.6A4642 4642 0 011041.2 795v39.7c0 19.2 15.8 35 35 35h353c19.2 0 35-15.8 35-35V611.3c0-19.3-15.8-35-35-35zM1277.2 882.4h-31.3c-.8 0-1.4-.6-1.4-1.4 0-.7.6-1.4 1.4-1.4h31.3c.8 0 1.4.7 1.4 1.4 0 .8-.6 1.4-1.4 1.4z" class="st7"/><circle cx="1073.2" cy="569.8" r="3.1" class="st7"/><circle cx="1086.6" cy="569.8" r="3.1" class="st3"/><circle cx="1100.1" cy="569.8" r="3.1" class="st8"/><g><path d="M1065 914.2h-10.5a4 4 0 01-4-4 4 4 0 014-4h10.5a4 4 0 010 8zM1095.7 914.2h-10.5a4 4 0 01-4-4 4 4 0 014-4h10.5a4 4 0 014 4 4 4 0 01-4 4zM1126.5 914.2H1116a4 4 0 01-4-4 4 4 0 014-4h10.5a4 4 0 014 4 4 4 0 01-4 4zM1157.2 914.2h-10.5a4 4 0 01-4-4 4 4 0 014-4h10.5a4 4 0 014 4 4 4 0 01-4 4zM1188 914.2h-10.5a4 4 0 01-4-4 4 4 0 014-4h10.5a4 4 0 014 4 4 4 0 01-4 4zM1218.7 914.2h-10.5a4 4 0 01-4-4 4 4 0 014-4h10.5a4 4 0 014 4 4 4 0 01-4 4zM1249.5 914.2h-10.6a4 4 0 01-4-4 4 4 0 014-4h10.6a4 4 0 110 8zM1280.2 914.2h-10.5a4 4 0 01-4-4 4 4 0 014-4h10.5a4 4 0 010 8zM1311 914.2h-10.6a4 4 0 01-4-4 4 4 0 014-4h10.6a4 4 0 010 8zM1341.7 914.2h-10.5a4 4 0 01-4-4 4 4 0 014-4h10.5a4 4 0 010 8zM1372.5 914.2h-10.6a4 4 0 01-4-4 4 4 0 014-4h10.6a4 4 0 014 4 4 4 0 01-4 4zM1403.2 914.2h-10.5a4 4 0 01-4-4 4 4 0 014-4h10.5a4 4 0 014 4 4 4 0 01-4 4zM1434 914.2h-10.6a4 4 0 01-4-4 4 4 0 014-4h10.6a4 4 0 014 4 4 4 0 01-4 4z" class="st7"/></g><g><path d="M1430 625.4h-82.6c-3.8 0-6.9-3-6.9-6.8s3.1-6.9 6.9-6.9h82.6a6.9 6.9 0 110 13.7zM1430 656.8h-82.6c-3.8 0-6.9-3-6.9-6.8s3.1-6.9 6.9-6.9h82.6c3.8 0 6.9 3 6.9 6.8s-3.1 6.9-6.9 6.9z" class="st5"/></g></g><g id="Tablet_1_"><path d="M578.4 639v261.6a37 37 0 01-36.9 37H373.4a37 37 0 01-36.9-37V639a37 37 0 0136.9-36.9h168.1a37 37 0 0136.9 37z" class="st5"/><path d="M350.3 899.8a25.7 25.7 0 0025.6 25.7h163c14.2 0 25.7-11.5 25.7-25.7V641.2c0-7.9-3.6-15-9.2-19.7-65.6 63-135.4 122-205.1 180.8v97.5z" class="st7"/><path d="M510.1 615.5H376c-14.1 0-25.6 11.5-25.6 25.7v161.1c69.7-58.9 139.5-117.8 205.1-180.8-4.4-3.7-10.2-6-16.4-6H510z" class="st6"/><circle cx="457.4" cy="930" r="4.7" class="st8"/><g><path d="M528.5 667.7h-82.6c-3.8 0-6.9-3-6.9-6.8s3-6.9 6.9-6.9h82.6c3.8 0 6.8 3.1 6.8 6.9 0 3.8-3 6.8-6.8 6.8zM528.5 699.1h-82.6c-3.8 0-6.9-3-6.9-6.8s3-6.9 6.9-6.9h82.6c3.8 0 6.8 3 6.8 6.9 0 3.7-3 6.8-6.8 6.8z" class="st5"/></g></g><g id="Mobile_1_"><path d="M357.1 686.5h-89a18.5 18.5 0 00-18.4 18.4v89.3c39.2-35.2 79.2-69.6 120.8-101.8-3.3-3.6-8.1-6-13.4-6z" class="st6"/><path d="M370.5 692.4a2154 2154 0 00-120.8 101.8v128.5c0 10.2 8.3 18.4 18.4 18.4h89c10.1 0 18.4-8.2 18.4-18.4V705c0-4.7-1.8-9-4.8-12.3l-.2-.2z" class="st7"/><path d="M357.1 686.5h-89a18.5 18.5 0 00-18.4 18.4v217.8c0 10.2 8.3 18.4 18.4 18.4h89c10.1 0 18.4-8.2 18.4-18.4V705c0-10.1-8.3-18.4-18.4-18.4zM367.5 899c0 10.1-8.3 18.4-18.4 18.4h-73a18.5 18.5 0 01-18.4-18.4V713.4c0-10 8.3-18.4 18.4-18.4h73c10.1 0 18.4 8.3 18.4 18.4V899z" class="st4"/><path d="M324.4 692.3h-23.7a1 1 0 110-2.1h23.7c.6 0 1 .5 1 1 0 .6-.4 1.1-1 1.1z" class="st7"/><circle cx="312.6" cy="928.5" r="6.5" class="st8"/><g><path d="M354 860.9h-82.7a6.9 6.9 0 110-13.7h82.6c3.8 0 6.9 3 6.9 6.8s-3.1 6.9-6.9 6.9zM354 892.2h-82.7c-3.8 0-6.9-3-6.9-6.8s3.1-6.9 6.9-6.9h82.6a6.9 6.9 0 110 13.7z" class="st3"/></g></g></g></svg>