<svg xmlns="http://www.w3.org/2000/svg" viewBox="0 0 1799.6 1200.9"><style>.st0{fill:#e3e5fc}.st1{fill:#a7adff}.st2{fill:#fff}.st3{fill:#5a54ff}.st4{fill:#f44e4e}.st5{fill:#eac2ab}.st7{fill:#fdc510}.st8{fill:#4b369d}</style><g id="UI"><g id="Calendar"><ellipse cx="1017.7" cy="1054.4" class="st0" rx="390.2" ry="18.7"/><path d="M1521.6 221.4a45 45 0 00-45-45H560.5a45 45 0 00-45 45v102.2h1006.2V221.4z" class="st1"/><path d="M515.4 323.6h1006.2v611H515.4z" class="st0"/><path d="M703 516.8h-89.7c-13 0-23.7-10.7-23.7-23.7v-81c0-13 10.7-23.8 23.7-23.8H703c13 0 23.7 10.7 23.7 23.8v81c0 13-10.6 23.7-23.7 23.7zM942 516.8h-89.5c-13 0-23.8-10.7-23.8-23.7v-81c0-13 10.7-23.8 23.8-23.8H942c13 0 23.7 10.7 23.7 23.8v81c0 13-10.7 23.7-23.7 23.7zM1181.2 516.8h-89.6c-13 0-23.7-10.7-23.7-23.7v-81c0-13 10.7-23.8 23.7-23.8h89.6c13 0 23.7 10.7 23.7 23.8v81c0 13-10.6 23.7-23.7 23.7zM1420.4 516.8h-89.6c-13 0-23.8-10.7-23.8-23.7v-81c0-13 10.7-23.8 23.8-23.8h89.6c13 0 23.7 10.7 23.7 23.8v81c0 13-10.7 23.7-23.7 23.7zM703 689.6h-89.7c-13 0-23.7-10.7-23.7-23.7v-81c0-13 10.7-23.8 23.7-23.8H703c13 0 23.7 10.7 23.7 23.8v81c0 13-10.6 23.7-23.7 23.7zM942 689.6h-89.5c-13 0-23.8-10.7-23.8-23.7v-81c0-13 10.7-23.8 23.8-23.8H942c13 0 23.7 10.7 23.7 23.8v81c0 13-10.7 23.7-23.7 23.7zM1181.2 689.6h-89.6c-13 0-23.7-10.7-23.7-23.7v-81c0-13 10.7-23.8 23.7-23.8h89.6c13 0 23.7 10.7 23.7 23.8v81c0 13-10.6 23.7-23.7 23.7zM1420.4 689.6h-89.6c-13 0-23.8-10.7-23.8-23.7v-81c0-13 10.7-23.8 23.8-23.8h89.6c13 0 23.7 10.7 23.7 23.8v81c0 13-10.7 23.7-23.7 23.7zM703 862.4h-89.7c-13 0-23.7-10.7-23.7-23.7v-81c0-13 10.7-23.8 23.7-23.8H703c13 0 23.7 10.7 23.7 23.8v81c0 13-10.6 23.7-23.7 23.7zM942 862.4h-89.5c-13 0-23.8-10.7-23.8-23.7v-81c0-13 10.7-23.8 23.8-23.8H942c13 0 23.7 10.7 23.7 23.8v81c0 13-10.7 23.7-23.7 23.7zM1181.2 862.4h-89.6c-13 0-23.7-10.7-23.7-23.7v-81c0-13 10.7-23.8 23.7-23.8h89.6c13 0 23.7 10.7 23.7 23.8v81c0 13-10.6 23.7-23.7 23.7zM1420.4 862.4h-89.6c-13 0-23.8-10.7-23.8-23.7v-81c0-13 10.7-23.8 23.8-23.8h89.6c13 0 23.7 10.7 23.7 23.8v81c0 13-10.7 23.7-23.7 23.7z" class="st2"/><circle cx="743.7" cy="244.1" r="33.6" class="st3"/><path d="M745 258.9a18.6 18.6 0 01-18.5-18.5v-94.2c0-10.2 8.3-18.5 18.5-18.5s18.5 8.3 18.5 18.5v94.2c0 10.2-8.3 18.5-18.5 18.5z" class="st4"/><circle cx="926.3" cy="244.1" r="33.6" class="st3"/><path d="M927.6 258.9a18.6 18.6 0 01-18.5-18.5v-94.2c0-10.2 8.3-18.5 18.5-18.5S946 136 946 146.2v94.2c0 10.2-8.3 18.5-18.5 18.5z" class="st4"/><circle cx="1108.9" cy="244.1" r="33.6" class="st3"/><path d="M1110.2 258.9a18.6 18.6 0 01-18.5-18.5v-94.2c0-10.2 8.3-18.5 18.5-18.5s18.5 8.3 18.5 18.5v94.2c0 10.2-8.3 18.5-18.5 18.5z" class="st4"/><circle cx="1291.5" cy="244.1" r="33.6" class="st3"/><path d="M1292.8 258.9a18.6 18.6 0 01-18.5-18.5v-94.2c0-10.2 8.3-18.5 18.5-18.5s18.5 8.3 18.5 18.5v94.2c0 10.2-8.3 18.5-18.5 18.5zM643.1 662zM708.8 596.3a4.5 4.5 0 00-6.3 0l-56.3 56.2 6.3 6.3 56.3-56.2a4.5 4.5 0 000-6.3zM643 655.7l3.2-3.2-25.4-25.4a4.5 4.5 0 00-6.3 0 4.5 4.5 0 000 6.3L643 662a4.5 4.5 0 010-6.3z" class="st4"/><path d="M643 655.7a4.5 4.5 0 000 6.3 4.5 4.5 0 006.4 0l3.1-3.2-6.3-6.3-3.1 3.2zM1121 833.3c-1.4 0-2.8-.6-3.8-1.6l-28.6-28.6c-1-1-1.6-2.4-1.6-3.8s.6-2.8 1.6-3.8c2-2 5.6-2 7.6 0l24.8 24.8 55.6-55.6a5.4 5.4 0 017.6 7.6l-59.4 59.4c-1 1-2.4 1.5-3.8 1.5zm-28.6-37.5a3.5 3.5 0 00-3.5 3.5c0 1 .4 1.8 1 2.5l28.6 28.6a3.5 3.5 0 005 0L1183 771a3.5 3.5 0 000-5 3.5 3.5 0 00-5 0l-56.9 56.9-26-26.1c-.8-.6-1.6-1-2.6-1z" class="st4"/><g><path d="M878.7 485.4zM944.4 419.7a4.5 4.5 0 00-6.3 0L882 476l6.3 6.3 56.2-56.3a4.5 4.5 0 000-6.3zM878.7 479.1l3.2-3.1-25.5-25.5a4.5 4.5 0 00-6.3 0 4.5 4.5 0 000 6.3l28.6 28.6a4.5 4.5 0 010-6.3z" class="st4"/><path d="M878.7 479.1a4.5 4.5 0 000 6.3 4.5 4.5 0 006.3 0l3.1-3.1-6.2-6.3-3.2 3.1z" class="st4"/></g><g><path d="M943.9 593.3h-93.3c-2.9 0-5.3-2.4-5.3-5.3 0-3 2.4-5.3 5.3-5.3H944c3 0 5.3 2.3 5.3 5.3s-2.4 5.3-5.3 5.3zM943.9 619.3h-93.3c-2.9 0-5.3-2.4-5.3-5.4 0-3 2.4-5.3 5.3-5.3H944c3 0 5.3 2.4 5.3 5.3 0 3-2.4 5.4-5.3 5.4zM943.9 645.2h-93.3c-2.9 0-5.3-2.4-5.3-5.3 0-3 2.4-5.4 5.3-5.4H944c3 0 5.3 2.4 5.3 5.4 0 3-2.4 5.3-5.3 5.3zM943.9 671.1h-93.3c-2.9 0-5.3-2.4-5.3-5.3 0-3 2.4-5.3 5.3-5.3H944c3 0 5.3 2.4 5.3 5.3 0 3-2.4 5.4-5.3 5.4z" class="st0"/></g><g><path d="M704.8 767.5h-93.3c-3 0-5.3-2.4-5.3-5.3 0-3 2.3-5.4 5.3-5.4h93.3c2.9 0 5.3 2.4 5.3 5.4 0 2.9-2.4 5.3-5.4 5.3zM704.8 793.4h-93.3c-3 0-5.3-2.4-5.3-5.3 0-3 2.3-5.3 5.3-5.3h93.3c2.9 0 5.3 2.4 5.3 5.3 0 3-2.4 5.3-5.4 5.3zM704.8 819.4h-93.3c-3 0-5.3-2.4-5.3-5.4 0-2.9 2.3-5.3 5.3-5.3h93.3c2.9 0 5.3 2.4 5.3 5.3 0 3-2.4 5.4-5.4 5.4zM704.8 845.3h-93.3c-3 0-5.3-2.4-5.3-5.3 0-3 2.3-5.3 5.3-5.3h93.3c2.9 0 5.3 2.3 5.3 5.3s-2.4 5.3-5.4 5.3z" class="st0"/></g><g><path d="M1423.7 419h-93.3c-3 0-5.3-2.4-5.3-5.3 0-3 2.4-5.4 5.3-5.4h93.3c3 0 5.3 2.4 5.3 5.4 0 2.9-2.4 5.3-5.3 5.3zM1423.7 445h-93.3c-3 0-5.3-2.5-5.3-5.4 0-3 2.4-5.3 5.3-5.3h93.3c3 0 5.3 2.4 5.3 5.3 0 3-2.4 5.3-5.3 5.3zM1423.7 470.9h-93.3c-3 0-5.3-2.4-5.3-5.4 0-2.9 2.4-5.3 5.3-5.3h93.3c3 0 5.3 2.4 5.3 5.3 0 3-2.4 5.4-5.3 5.4zM1423.7 496.8h-93.3c-3 0-5.3-2.4-5.3-5.3 0-3 2.4-5.4 5.3-5.4h93.3c3 0 5.3 2.4 5.3 5.4 0 3-2.4 5.3-5.3 5.3z" class="st0"/></g><g><path d="M1183 419h-93.2c-3 0-5.3-2.4-5.3-5.3 0-3 2.4-5.4 5.3-5.4h93.3c2.9 0 5.3 2.4 5.3 5.4 0 2.9-2.4 5.3-5.4 5.3zM1183 445h-93.2c-3 0-5.3-2.5-5.3-5.4 0-3 2.4-5.3 5.3-5.3h93.3c2.9 0 5.3 2.4 5.3 5.3 0 3-2.4 5.3-5.4 5.3zM1183 470.9h-93.2c-3 0-5.3-2.4-5.3-5.4 0-2.9 2.4-5.3 5.3-5.3h93.3c2.9 0 5.3 2.4 5.3 5.3 0 3-2.4 5.4-5.4 5.4zM1183 496.8h-93.2c-3 0-5.3-2.4-5.3-5.3 0-3 2.4-5.4 5.3-5.4h93.3c2.9 0 5.3 2.4 5.3 5.4 0 3-2.4 5.3-5.4 5.3z" class="st0"/></g><g><path d="M1183 592.2h-93.2c-3 0-5.3-2.4-5.3-5.3 0-3 2.4-5.4 5.3-5.4h93.3c2.9 0 5.3 2.4 5.3 5.4 0 3-2.4 5.3-5.4 5.3zM1183 618.2h-93.2c-3 0-5.3-2.4-5.3-5.4 0-3 2.4-5.3 5.3-5.3h93.3c2.9 0 5.3 2.4 5.3 5.3 0 3-2.4 5.4-5.4 5.4zM1183 644.1h-93.2c-3 0-5.3-2.4-5.3-5.3 0-3 2.4-5.4 5.3-5.4h93.3c2.9 0 5.3 2.4 5.3 5.4 0 2.9-2.4 5.3-5.4 5.3zM1183 670h-93.2c-3 0-5.3-2.4-5.3-5.3 0-3 2.4-5.3 5.3-5.3h93.3c2.9 0 5.3 2.4 5.3 5.3 0 3-2.4 5.3-5.4 5.3z" class="st0"/></g><g><path d="M1423.7 591.8h-93.3c-3 0-5.3-2.4-5.3-5.3 0-3 2.4-5.4 5.3-5.4h93.3c3 0 5.3 2.4 5.3 5.4 0 2.9-2.4 5.3-5.3 5.3zM1423.7 617.7h-93.3c-3 0-5.3-2.4-5.3-5.3 0-3 2.4-5.3 5.3-5.3h93.3c3 0 5.3 2.4 5.3 5.3 0 3-2.4 5.3-5.3 5.3zM1423.7 643.7h-93.3c-3 0-5.3-2.4-5.3-5.4 0-2.9 2.4-5.3 5.3-5.3h93.3c3 0 5.3 2.4 5.3 5.3 0 3-2.4 5.4-5.3 5.4zM1423.7 669.6h-93.3c-3 0-5.3-2.4-5.3-5.3 0-3 2.4-5.4 5.3-5.4h93.3c3 0 5.3 2.4 5.3 5.4 0 3-2.4 5.3-5.3 5.3z" class="st0"/></g><g><path d="M1423.7 764.6h-93.3c-3 0-5.3-2.4-5.3-5.3 0-3 2.4-5.4 5.3-5.4h93.3c3 0 5.3 2.4 5.3 5.4 0 2.9-2.4 5.3-5.3 5.3zM1423.7 790.5h-93.3c-3 0-5.3-2.4-5.3-5.3 0-3 2.4-5.3 5.3-5.3h93.3c3 0 5.3 2.4 5.3 5.3 0 3-2.4 5.3-5.3 5.3zM1423.7 816.5h-93.3c-3 0-5.3-2.4-5.3-5.4 0-2.9 2.4-5.3 5.3-5.3h93.3c3 0 5.3 2.4 5.3 5.3 0 3-2.4 5.4-5.3 5.4zM1423.7 842.4h-93.3c-3 0-5.3-2.4-5.3-5.3 0-3 2.4-5.4 5.3-5.4h93.3c3 0 5.3 2.4 5.3 5.4 0 3-2.4 5.3-5.3 5.3z" class="st0"/></g><g><path d="M943.9 764.6h-93.3c-2.9 0-5.3-2.4-5.3-5.3 0-3 2.4-5.4 5.3-5.4H944c3 0 5.3 2.4 5.3 5.4 0 2.9-2.4 5.3-5.3 5.3zM943.9 790.5h-93.3c-2.9 0-5.3-2.4-5.3-5.3 0-3 2.4-5.3 5.3-5.3H944c3 0 5.3 2.4 5.3 5.3 0 3-2.4 5.3-5.3 5.3zM943.9 816.5h-93.3c-2.9 0-5.3-2.4-5.3-5.4 0-2.9 2.4-5.3 5.3-5.3H944c3 0 5.3 2.4 5.3 5.3 0 3-2.4 5.4-5.3 5.4zM943.9 842.4h-93.3c-2.9 0-5.3-2.4-5.3-5.3 0-3 2.4-5.4 5.3-5.4H944c3 0 5.3 2.4 5.3 5.4 0 3-2.4 5.3-5.3 5.3z" class="st0"/></g><g><path d="M704.8 416.1h-93.3c-3 0-5.3-2.4-5.3-5.3 0-3 2.3-5.4 5.3-5.4h93.3c2.9 0 5.3 2.4 5.3 5.4 0 2.9-2.4 5.3-5.4 5.3zM704.8 442h-93.3c-3 0-5.3-2.4-5.3-5.3 0-3 2.3-5.3 5.3-5.3h93.3c2.9 0 5.3 2.4 5.3 5.3 0 3-2.4 5.3-5.4 5.3zM704.8 468h-93.3c-3 0-5.3-2.4-5.3-5.4 0-2.9 2.3-5.3 5.3-5.3h93.3c2.9 0 5.3 2.4 5.3 5.3 0 3-2.4 5.4-5.4 5.4zM704.8 494h-93.3c-3 0-5.3-2.5-5.3-5.4 0-3 2.3-5.4 5.3-5.4h93.3c2.9 0 5.3 2.4 5.3 5.4 0 3-2.4 5.3-5.4 5.3z" class="st0"/></g><g><path d="M1242.9 749.9zM1326.4 666.4a5.7 5.7 0 00-8 0l-71.5 71.6 8 8 71.5-71.6a5.7 5.7 0 000-8zM1242.9 742l4-4-32.3-32.4a5.7 5.7 0 00-8 8l36.3 36.3a5.7 5.7 0 010-8z" class="st4"/><path d="M1242.9 742a5.7 5.7 0 008 8l4-4-8-8-4 4z" class="st4"/></g></g><g id="Button"><path d="M577.4 834H412a36.4 36.4 0 010-72.5h165.3c20-.1 36.2 16.2 36.2 36.2 0 20-16.3 36.2-36.2 36.2z" class="st1"/><path d="M421.7 825.2a27.6 27.6 0 110-55.2 27.6 27.6 0 010 55.2zm0-51.4a23.9 23.9 0 100 47.8 23.9 23.9 0 000-47.8z" class="st2"/><path d="M419.1 810.7h3.8v7.2h-3.8zM419.1 777.5h3.8v7.2h-3.8z" class="st2"/><path d="M419.3 789.3h20.1v3.8h-20.1z" class="st2" transform="rotate(-40.2 429.4 791.3)"/></g><g id="Button_1_"><path d="M451 730.5H285.7c-20 0-36.3-16.3-36.3-36.2 0-20 16.3-36.3 36.3-36.3H451c20 0 36.2 16.3 36.2 36.3 0 20-16.3 36.2-36.2 36.2z" class="st0"/><path d="M297.7 707.1zM331 673.8c-1-.8-2.4-.8-3.2 0l-28.5 28.5 3.2 3.2 28.4-28.5c1-.9 1-2.3 0-3.2zM297.7 703.9l1.6-1.6-12.9-12.9a2.2 2.2 0 10-3.2 3.2l14.5 14.5c-.9-.9-.9-2.3 0-3.2z" class="st1"/><path d="M297.7 703.9c-.9.9-.9 2.3 0 3.2.9.8 2.3.8 3.2 0l1.6-1.6-3.2-3.2-1.6 1.6z" class="st1"/></g></g><g id="Characters"><g id="Woman"><path id="Arm_1_" d="M1420 765.3s-23.7 41.6-61.7 31.2c-38.1-10.4-64.5-65.4-76-59.2s-38.5-3.4-8-11.9c13.9-3.9 16-3.3 17.6-2.2 21 15.1 45.6 38.6 58.4 49.7 13.9 11.8 31.1 3.3 47-5.6 15.8-9 76-27.8 22.7-2z" class="st5"/><g id="Head"><path id="Neck" fill="#d4a79a" d="M1445.5 687.3l5.5 39.7c9.6 2.8 19.6 8.2 29.8 8.2-.5-7.4-7.7-15.8-11-22.8-4-8.4 5.8-27.5 6.2-37 1.2-24.8-30.5 11.9-30.5 11.9z"/><path id="Face" d="M1436.8 627.3c-4.9-1.3-18.7 3.9-21 8.3-5.4 10.8-1.3 23.4-2.6 36.1a55 55 0 0011.9 32.9c9.7 10.2 22-3.6 29.5-12.2a59 59 0 0013.5-43.9c-.5-5.7-2-11.7-6.3-15.5-4.1-3.7-10-4.6-15.4-5.4-3.4-.5-6.3.6-9.7-.3z" class="st5"/></g><g id="Leg_1_"><path id="Skin_1_" d="M1156 985l-28.6 32.7 10 10.7 27.8-35.9s-4.5-6.6-9.1-7.5z" class="st5"/><path id="Shoe_1_" d="M1064 998.6s8.3 9.2 27.3 21.5 40.8 25.2 46.4 24.5c5.7-.7 22-24.3 15.4-28-6.7-3.6-14.5 4.6-21.4-10.3-6-12.8-21.6-3.4-41-9.3-19.4-5.8-27.2-8.2-26.8 1.6z" class="st7"/><path id="Leg_3_" d="M1253.2 880.7c-3 0-6.2 0-9 1.2-3 1.3-5.3 4-7.6 6.4-15.8 18-32.2 35.4-49.2 52.3-16.4 16.4-33.7 32.6-54.4 43 1.7 3.4 5.5 5 8.9 6.6 14 6.5 26.6 16.2 36.4 28 1-9.1 5.2-18 11.9-24.4 4.7-4.5 10.5-7.8 16-11.4 25-16 45.4-38.2 69.6-55.4 1-.7 2.2-1.5 3.5-1.9a12 12 0 015.2.1A784 784 0 001399 935c8.8.1 19.9-1.4 22.7-9.8 11.3-34-106.3-41.3-121.5-42.5-15-1.2-32.1-4-47-2z" class="st8"/></g><path id="Body" d="M1445.5 720c-15.6 5.9-33 25.9-38.6 34-17 25.2-6.5 48.5-31.5 85-2.4 3.5-1.5 8.6 0 12.6 2.3 5.8 8.7 8.7 14.4 11.3a232 232 0 0161.5 40.3 997.9 997.9 0 0019.4-149.8 52 52 0 00-2.6-24c-5-11.5-13.5-12.9-22.6-9.4z" class="st4"/><path id="Arm" d="M1474.7 742.9c8.3 20 2 43.5 5.6 65.1 3.6 21.6 2.7 42.8 7.7 64.2 3.3 13.9 6 27.9 8 42 .2 1 .4 2.1 1.2 3 .9.8 2.2 1 3.5 1.3 12 1.9 32.8 1.4 40 11.5a60.7 60.7 0 01-39.9-1l6.6 6.6c-5 2.4-11.1.3-15-3.6a40 40 0 01-7.9-14.4c-11-28.4-22.7-56.5-27.3-86.8-2.6-17.2-2.5-34.7-6.2-51.7-1.2-5.3-2.7-10.5-2.6-15.9 0-8.6 4.5-17 11.8-22.5 1.5-1.1 3-2.1 5-2.5 3.3-.7 6.8.9 9.1 3.2 2.3 2.3 3.6 5.3 4.9 8.2" class="st5"/><g id="Leg"><path id="Skin" d="M1264.5 958l-4.6 43.3 14.3 3 2-45.4s-7.5-2.8-11.8-.9z" class="st5"/><path id="Shoe" d="M1205.3 1024.2s10.7 2.4 30.6 1.6c20-.7 42.1-2.4 45.8-5.8 3.7-3.4 3.5-28.6-3.1-28-6.6.8-8.1 10.6-20.7 3.4-10.8-6.2-17.2 8.5-34 14-17 5.7-23.9 8-18.6 14.8z" class="st7"/><path id="Leg_2_" d="M1447.2 860.8c5.6 2.2 11.3 5.3 14 10.7 1.7 3 2.2 6.6 2.4 10 1 13.6-1.2 28.4-11 37.9a50.7 50.7 0 01-17 10 79.1 79.1 0 01-46 5.8c-16.9-3.8-30.7-15.8-42.2-28.6-9.8-11-18.6-22.8-26-35.5-4.3-7-8.8-15-16.6-17.4-6.1 18.6-1.6 39-3.8 58.4-1.2 11-4.5 21.8-5.6 32.9-1.1 11 .4 23 7.5 31.5-6 5.8-15.6 3.5-23.8 2a86.6 86.6 0 00-30.9-.2c-2.6.5-5.5 1-7.6-.7-1.6-1.4-2-3.8-2-6 .4-7.2 5-13.5 7.4-20.4 2.7-8.2 2.3-17 2.7-25.6 1.4-28.7 12.7-56.3 13.6-85 .2-8.3-.4-16.6 1.3-24.7s6.2-16 13.8-19.4c8.8-3.9 20.6-3.3 28 3a731 731 0 0091.5 53.1c16.1 7.7 33.7 1.5 50.3 8.2z" class="st3"/></g><path id="Hair" d="M1541.4 807c-1.7 0-3.4-.4-4.5-1.6-2-2.2-1.3-5.5-1.7-8.4-.7-6.3-5.9-10.9-6.3-17.4-.4-7.6 4.2-14.5 1.8-22.2-2.4-7.7-9-15.2-14.3-21.2-4.3-4.9-10.4-8.7-13.3-14.8-2.6-5.7-.5-12.2.4-18 1-6.5-2-9.8-2.5-16-.4-4.1 1.8-8 1.5-12.1l1.4-7.7c1.7-10.6-8.9-16.4-14.1-23.7-5.5-7.6-.1-20.8-6.5-29.7-8.5-12-26.4-13.7-39.7-11-9.7 1.9-13.9 8-21 14-3 2.6-7.3 3.1-10.7 5-5 2.7-8.3 6.9-10.6 12.3a10 10 0 00-.9 4.3 7 7 0 001.3 4c2.4 3.4 7.5 3.4 11.5 2.1 16.1-5.4 38-4.4 38.5 18 .2 9.6-4 18.7-5.2 28-1.3 10.6 12 15.1 16.1 22.9 4 7.6 6.8 17.5 6.7 26.2 0 0-6.8 11.6-6.1 24.2.5 10 6.8 10 12.1 13.6 3.3 2.3 1.5 11.8 2.3 15 1.6 6.5 6.8 10.8 9 16.9 2.2 6.6 2 11 8.4 15.4 13.6 9.4 32 7 45.3-2 3-2 10.3-7.1 9.9-11.7-.5-5-4.9-4-8.8-4.4z" class="st8"/></g></g></svg>