<svg xmlns="http://www.w3.org/2000/svg" viewBox="0 0 1800 1201"><style>.st0{fill:#a7adff}.st1{fill:#e3e5fc}.st2{fill:#f44e4e}.st3{fill:#fff}.st4{fill:#d4a79a}.st5{fill:#eac2ab}.st6{fill:#4b369d}</style><g id="UI"><g id="Phone"><path d="M1301 877h-284c-25 0-45-20-45-45V164c0-25 20-45 45-45h284c25 0 45 20 45 45v668c0 25-20 45-45 45z" class="st0"/><path d="M1277 807h-237c-24 0-45-21-45-45V190c0-25 21-45 45-45h237c25 0 45 20 45 45v572c0 24-20 45-45 45zM1194 137h-70c-2 0-4-2-4-4 0-1 2-3 4-3h70c2 0 3 2 3 3 0 2-1 4-3 4z" class="st1"/><circle cx="1158.8" cy="839.7" r="19.4" class="st1"/><path d="M1248 728h-178c-16 0-29-13-29-29v-11c0-16 13-29 29-29h178c16 0 29 13 29 29v11c0 16-13 29-29 29z" class="st2"/><path d="M1161 327c-15-4-19-49-34-49-33 3-44 47-63 80 3 13 14 23 29 23h132c15 0 28-13 28-28v-95c-4 0-9 2-13 5-27 23-45 71-79 64z" class="st0"/><path d="M1225 219h-132c-16 0-29 13-29 29v110c19-33 30-77 63-80 15 0 19 45 34 49 34 7 53-41 79-64 4-3 9-5 14-5v-10c0-16-13-29-29-29z" class="st3"/><path d="M1244 442h-171c-4 0-8-3-8-8s4-8 8-8h171c5 0 9 3 9 8s-4 8-9 8z" class="st0"/><path d="M1244 481h-171c-4 0-8-4-8-9 0-4 4-8 8-8h171c5 0 9 4 9 8 0 5-4 9-9 9zM1244 519h-171c-4 0-8-4-8-8 0-5 4-9 8-9h171c5 0 9 4 9 8v1c0 4-4 8-9 8z" class="st3"/><circle cx="1177.6" cy="269.6" r="16.6" class="st0"/><path d="M1157 626v-3l23-28c1-2 2-2 3-1 2 1 2 3 1 4l-23 28h-4z" class="st3"/><path d="M1160 626c1-1 2-2 1-3l-23-28c-1-2-3-2-4-1v4l23 28h3z" class="st3"/><ellipse cx="1158.8" cy="1038.2" class="st1" rx="173.1" ry="25.5"/></g><g id="Button"><path d="M673 431H483c-16 0-30-14-30-30s14-30 30-30h190c16 0 30 14 30 30s-14 30-30 30z" class="st1"/><path d="M674 403h-2l-17-14v-2h2l17 14v2z" class="st3"/><path d="M674 401h-2l-17 14v2h2l17-14v-2z" class="st3"/><g><path d="M600 496H473c-11 0-20-8-20-19s9-20 20-20h127c11 0 20 9 20 20s-9 19-20 19z" class="st0"/><path d="M601 478h-2l-11-9v-2h1l12 10v1z" class="st3"/><path d="M601 477h-2l-11 9v1h1l12-9v-1z" class="st3"/></g></g></g><g id="Characters"><g id="Man"><path id="Arm_1_" d="M771 486s-23 30-24 52c-2 22 56 31 56 31l-32-83z" class="st4"/><g id="Head"><path id="Neck" d="M835 403l-2 45-36 14s22-32 18-59c-4-28 20 0 20 0z" class="st4"/><path id="Face" d="M867 310s8 10 0 41c-7 32-20 59-29 57-26-5-36-24-45-40-11-19 11-67 11-67l21-11 42 20z" class="st5"/><path id="Hair" d="M895 301c2-7-2-17-7-21-2-2-5-3-8-3l-5 1c-6-1-7-10-12-11-4-2-8 2-12 3-3 1-7 0-10-1-9-2-17-6-26-7a33 33 0 00-38 23c-1 5-2 10 0 15-1-4-9 1-10 2-5 7-5 20-3 28l7 17c2 7 3 15 7 21 5 7 14 11 21 9l-5-20c-1-7-10-39 25-46 14-2 30 9 44 10 7 0 13-1 19-4 5-2 10-9 12-14l1-2z" class="st6"/><path id="Ear" d="M794 334s-10-11-8 6 9 20 9 20l-1-26z" class="st5"/></g><g id="Leg_2_"><path id="Skin_1_" d="M712 972l-21 55-19-5 25-56s11 1 15 6z" class="st4"/><path id="Shoe_1_" fill="#f3aa02" d="M740 1078l-9 1c-10 0-26 1-35-5s-14-16-22-23c-6-5-13-8-19-12-7-4 7-36 16-31 7 4 3 16 21 15 15-2 6 20 23 33 16 11 32 10 25 22z"/><path id="Leg_3_" d="M750 776c-8 46-26 88-52 127l-40 56c-19 26 45 32 61 37 10 3 26 4 25-4l-3-7c-14-21-2-42 7-60 28-56 47-120 70-178 8-22 4-44 5-68 1-15-25-80-53-64-17 10-8 48-6 63 2 11 4 22 2 33-3 22-12 43-16 65z" class="st6"/></g><g id="Leg"><path id="Skin" d="M819 990l13 60-19 6-10-63s10-5 16-3z" class="st5"/><path id="Shoe" fill="#fdc510" d="M911 1073s-14 5-42 7-59 3-64-1c-6-4-10-39 0-39 9 0 12 13 29 1 14-10 25 9 49 14 25 6 34 8 28 18z"/><path id="Leg_1_" fill="#5a54ff" d="M869 1007l-5-6c-20-15-15-39-12-59 8-49 0-98-3-147-3-48 2-95 13-142 4-17 9-43-17-38-12 2-25 2-37 0-7-1 0-3-7-1-22 7-30 49-26 64 9 30 12 58 14 90 2 44 9 88 4 132l-8 65c-2 13-13 40-6 52 10 15 53 2 68 2 11-1 25-5 22-12z"/></g><path id="Body_1_" fill="#d7384e" d="M850 533c-6-27 1-72-18-91l-7-6c-23-10-37 9-47 26s-10 35-15 54c-6 21-5 43-5 65l1 40-4 28c-2 6-10 18-8 25 2 4 11 3 15 3 16 0 32-4 46-12 13-6 24-16 39-17 8-1 31 2 28-11-8-32-17-60-21-82l-4-22z"/><path id="Arm" d="M883 555s27 30 32 26 86-92 90-102 14-37 13-43c-1-5-3-4 7-6 11-2 32-3 30 1-1 5-10 5-10 5s11 3 7 5-18 4-17 8c2 4 4 13 3 21s-4 12-13 17c-9 6-11 2-16 13s-86 107-91 111-7 9-18-2c-11-10-31-36-48-53-14-16-20-37-20-37l24-4s2 17 27 40z" class="st5"/><path id="Body" d="M865 516s-19-62-43-50c-25 12 10 77 10 77l39-19-6-8z" class="st2"/></g></g></svg>