<svg xmlns="http://www.w3.org/2000/svg" viewBox="0 0 1800 1201">
  <defs/>
  <style>
    .st0{fill:#e3e5fc}.st4{fill:#5a54ff}
  </style>
  <g id="Nature">
    <g id="Cloud">
      <path d="M173 1004l82 52c-27-8-54-16-79-29-25-14-47-33-60-58a85 85 0 011-81c21-34 71-51 107-31 15 8 29 21 46 19 34-5 57-39 89-51 34-12 72-14 107-4 14 4 56 20 58-9 1-8-3-16-3-25-1-41 111-2 135-22 20-17 25-44 43-62 22-21 50-35 74-53 29-22 58-61 43-99-6-17-20-33-16-51 2-11 10-19 18-27l64-63c5-4 11-9 18-9 7 1 12 10 12 18-1 8-5 15-8 22-14 35-8 77 16 106 15 17 37 30 42 53s-7 55 14 66c11 6 25 1 36 5 24 8 23 42 34 64 15 30 52 38 80 56 30 20 50 52 75 77 33 33 75 56 121 64 19 4 44 3 53-15s-5-44 8-60c15-18 44-2 65 10 31 17 68 23 104 29 35 7 72 14 101 36 29 21 49 60 37 94-13 39-57 56-97 63-149 26-299-26-449-40-154-15-308 10-461 23-157 13-310-2-466-20" class="st0"/>
      <path fill="#a7adff" d="M828 698c-1 13 1 27-1 40-3 13-11 26-24 30-18 5-40-10-54 3-11 10-6 27-12 40-11 27-55 21-73 44-6 8-8 19-17 25-10 7-24 2-36-1-49-13-100 12-143 39-28 18-56 37-84 58-5 4-11 9-14 16-4 10 3 22 10 31 33 41 101-2 153 2 92 6 160-10 251-13 65-2 123 10 187-2 59-11 132 7 193 7 28-1 58 5 82-10l8-7c5-9-1-21-9-29-29-31-121-20-146-55-66-93-97-89-170-114-9-4-19-7-26-14s-11-19-5-27c5-8 16-9 23-16 13-15-3-37-2-57 0-8 2-16 4-24 3-26-23-67-53-57-29 9-42 66-42 91z" opacity=".3"/>
    </g>
  </g>
  <g id="UI">
    <g id="Rocket">
      <path fill="#f44e4e" d="M821 494c-9 6-17 12-22 21-7 12 3 22 8 33 2 7 3 11 2 18-1 6-9 12-4 19 6 8 17 3 23 15 5 10 3 22 10 32 6 9 17 17 22 28 4 12-6 30 8 38 7 5 17 1 22-6 10-14 10-40 13-57 1-7 7-18 14-14 4 2 10 34 20 17 2-3 1-7 1-11 0-5-2-11-1-16 3-20 7-30 1-50 0-2-1-5 1-7h3c8-1 16 0 20-8 5-9-5-15-8-22l24 9c-7-15-21-26-36-31"/>
      <path fill="#d7384e" d="M831 564c2 7 5 13 9 18 4 4 8 7 10 12l4 13c7 17 20-1 25-9 5-10 11-13 21-13l4-1v-3c-1-6-8-15-1-21l9-4c17-5 16-35 16-49-1-6-3-11-6-15-16-25-57-25-77-4-16 17-22 51-14 76z"/>
      <path d="M1032 514c-9 7-71-40-132-94l69-55c39 72 71 143 63 149zM729 514c8 7 71-40 132-94l-69-55c-39 72-71 143-63 149z" class="st4"/>
      <path fill="#a7adff" d="M784 375c0 82 42 127 94 127s93-45 93-127c0-33-11-83-26-131H809c-14 48-25 98-25 131z"/>
      <path d="M878 105c-17 0-48 68-69 139h136c-21-71-52-139-67-139z" class="st4"/>
      <path fill="#978cff" d="M947 492H808c-10 0-19-9-19-19 0-11 9-20 19-20h139c11 0 19 9 19 20s-8 19-19 19z"/>
      <path d="M940 503H815c-3 0-6-2-6-5s3-6 6-6h125c3 0 6 3 6 6s-3 5-6 5z" class="st4"/>
      <g>
        <path fill="#fff" d="M878 300a49 49 0 00-49 54l85-37c-9-10-22-17-36-17z"/>
        <path d="M829 354a49 49 0 1085-37l-85 37z" class="st0"/>
      </g>
    </g>
  </g>
</svg>
