<svg xmlns="http://www.w3.org/2000/svg" viewBox="0 0 1800 1201" xmlns:v="https://vecta.io/nano"><style><![CDATA[.I{fill:#4b369d}.J{fill:#a7adff}.K{fill:#e3e5fc}.L{fill:#978cff}.M{fill:#eac2ab}]]></style><path d="M1338 874c-2-5-4-11-4-16 0-10 8-18 15-25s14-16 11-26c-2-9-12-14-21-18-8-5-18-13-16-22 3-14 25-16 27-29 1-5-2-10-4-15l-22-47c-3-7-6-16-1-22 4-3 10-3 14-5 13-5 16-20 19-34 3-13 9-29 23-30 5 0 10 2 14 5 18 11 29 32 28 53 0 9-3 19 3 26 2 4 7 7 10 9 15 10 23 30 21 47-2 12-8 25-3 36 7 12 25 14 31 26 5 11-1 22-7 31-6 10-14 19-13 30 0 6 2 11 3 17 2 15-8 28-19 38-14 12-36 24-55 17-22-7-43-25-54-46z" class="K"/><g fill="#fff"><path d="M1410 852l-2-1-27-206 2-2 1 1 27 206-1 2z"/><path d="M1393 716l-1-2 21-47a1 1 0 1 1 2 1l-20 47-2 1zm9 78l-1-1-30-31v-2h2l30 31a1 1 0 0 1-1 3z"/></g><ellipse cx="1003.1" cy="933" rx="516.3" ry="32" class="K"/><path d="M254 937c-10-3-20-8-26-17-6-8-9-20-4-29s16-14 25-19c9-6 18-16 14-26-3-10-15-13-23-19-7-5-11-14-9-23 2-8 11-15 20-12 4 2 8 7 13 7 9 0 12-13 9-21s-9-16-8-25c1-10 12-16 22-15 10 0 19 7 25 15 15 16 21 38 28 58 1 4 3 8 6 10 4 2 8 1 12-1l37-12c-3 1 51 60 53 67 7 22 1 47-20 59-21 11-50 9-73 9-33 0-69 5-101-6z" class="J"/><path d="M371 864c-4-12-6-24-1-35 7-14 42-29 25-49-8-10-26-11-30-23-3-13 12-23 17-34 5-12 5-26 2-39-6-28-27-51-41-76-3-5-6-10-5-15 2-6 8-10 14-11 11-2 30 2 37 12 7 9 5 24 14 31s22 2 33 6c27 10 12 61 38 73l13 5c10 4 15 15 20 25 5 11 10 23 9 35-4 24-31 43-24 66 2 6 7 13 6 20-3 12-24 13-29 25-6 13 7 26 0 39-5 11-25 17-37 15-28-4-52-46-61-70z" class="K"/><g fill="#fff"><path d="M449 936l-1-1-33-224a1 1 0 113 0l33 224-2 1z"/><path d="M429 789l-1-2 20-50 1-1c1 0 2 1 1 2l-19 50-2 1zm11 84h-1l-31-35a1.414 1.414 0 1 1 2-2l31 35v2h-1zm-95 187l-1-1-33-224a1.5 1.5 0 1 1 3 0l33 224-2 1z"/><path d="M325 913l-1-2 20-50 2-1v2l-19 50-2 1zM336 997h-1l-31-35a1 1 0 012-2l31 35a1 1 0 01-1 2z"/></g><path d="M1235 920c0-8 0-16 3-24 1-2 2-5 5-7h1l1 1c14 27-23 42-40 22l-3-4c0-3 3-6 6-6l8 3c7 4 11 11 15 18-5-9-8-19-8-30 0-2 0-4 2-4l2 1c4 3 7 9 8 14v16zm-546-55h1l2 3c3 13 3 10 1 26 3-10 2-8 7-17l4-5c11-7 0 24-2 27-7 13-21 17-34 12-12-4-23-14-27-26v-3l2-1c7 0 14 4 19 9 6 4 10 10 15 15 4 3 12 3 17 4 9 1 12-3 19-7l6-2 4 3-1 3c-6 13-22 12-30 1-7-9-11-26-8-37 1-3 3-5 5-5z" fill="#fdc510"/><path d="M1554 888h1l2 3v18l5-12 3-4c8-5 0 17-1 19-5 9-15 12-24 8-8-3-16-9-19-17v-3h1c5 0 10 2 14 6l10 10c3 3 9 2 12 3 6 1 8-2 13-5l4-1 3 2v2c-5 9-16 8-21 1s-8-18-6-26l3-4z" class="J"/><path d="M1399 857c-6-6-12-13-14-21-1-5 1-11 5-11l7 2c7 4 7-5 5-10-4-9-9-17-8-27l1-1 2-1c6 1 12 9 18 6 16-6 3-41 1-52l1-6c2-3 7-3 11-1 5 3 8 9 14 11 4 2 9 0 13-3 10-10 12-26 20-37 7-9 25-23 35-11 4 6 2 14 0 21s-4 15-3 21c1 5 3 11 7 13 8 6 23 6 15 20l-10 11c-3 4-5 8-3 13 3 8 27 11 18 23-2 4-6 5-9 7-16 10-2 18-5 31-1 5-5 9-9 11-6 4-14 6-21 9-14 6-27 15-39 25-9 7-23 24-35 16-8-5-3-19-3-26 2-13-6-23-14-33z" fill="#fdc510"/><g fill="#fff"><path d="M1421 926l-2-3 60-159 3-1 1 2-60 160-2 1z"/><path d="M1464 816a2 2 0 01-1-4l29-19a2 2 0 112 3l-29 19-1 1zM1442 874a2 2 0 01-1-4l30-19h2v3l-30 19-1 1zM1449 845l-1-1-19-29a2 2 0 013-2l19 29a2 2 0 01-2 3z"/></g><path d="M1355 918c-25 3-49 0-59-26-4-9-9-13-19-16-4-1-9-3-12-6s-4-10-1-13c3-2 7-2 11-2l19 2h2c3-1 1-5 0-7a623 623 0 00-30-34c-1-4 0-9 4-11 5-2 11 4 16 1 4-1 4-6 3-10s-2-8-2-12c1-4 4-7 8-8s8 1 10 5c2 3 2 8 5 11 3 2 8 0 10-1l9-6c6-2 13 2 15 7 1 6-2 13 1 18s9 6 15 5 11-4 16-3l5 3c1 2 0 5-1 6l-11 16c-3 6-4 13 1 18 2 2 6 3 9 4s6 4 6 7c1 6-6 9-9 14-5 5-3 14-4 21 0 21-20 20-36 17" fill="#f44e4e"/><g fill="#fff"><path d="M1359 922l-2-1-35-92 1-3 3 1 35 93a2 2 0 01-2 2z"/><path d="M1334 858h-1l-17-11v-3h2l17 11 1 3h-2zm12 34h-1l-16-12c-1 0-2-1-1-2l3-1 16 11c1 1 2 2 1 3l-2 1zm-4-17h-1v-2l11-17 2-1 1 3-11 17h-2z"/></g><path d="M849 236c76 2 153 4 228-9 12-2 27-6 29-19 3-15-16-25-31-24s-31 9-46 6c-11-3-21-10-30-18-14-11-30-22-48-25-18-2-39 7-43 25-20-4-38-15-56-23-18-7-40-12-58-4-19 7-30 32-19 48-11-15-79 20-90 27-16 11-25 16-5 21 18 4 46-6 65-7 35-2 70 1 104 2zm555 218c6 0 14-1 15-7 0-4-4-7-7-9-7-5-15-9-23-7l-9 4c-17 4-31-25-49-20l-8 4c-3 2-7 3-10 3-13 2-25 2-37-1l-17-2c-14 0-41 14-25 29 11 11 25 7 37 4 42-9 91 0 133 2zm-949 15c-10 0-25-4-23-15 1-9 14-10 22-8s17 8 26 5c3-1 6-4 10-4h11c5-1 8-7 13-9 9-2 18 8 26 4 5-3 6-10 7-15 4-22 29-36 49-30 27 8 41 44 69 46 12 2 60-8 51 21-5 17-61 8-76 7l-185-2zm879-125c5-1 11-4 10-9l-3-3c-19-14-44 5-66 0-7-2-13-6-19-7l-12-3c-12-5-18-19-29-26-15-8-36 0-41 16-3 9-2 20-10 25-9 6-26-3-29 11 27 11 54 1 82 1 39 1 77 1 117-5zm-384 31c4-1 9-4 8-7 0-2-1-3-2-3-15-11-35 4-53 0l-15-6-9-2c-9-4-14-15-23-20-12-7-28 0-32 12-3 7-2 16-8 20-8 4-21-2-23 9 21 9 42 0 64 1 32 0 62 0 93-4zM593 551c2 0 5-1 4-3l-1-2c-8-5-19 2-28 0-3 0-5-2-8-3l-5-1c-5-2-7-8-12-11-6-3-15 0-17 7-1 4-1 8-4 10-4 3-11-1-12 5 11 5 22 0 34 0 16 1 32 1 49-2zM417 322c-4 0-9-3-8-7l2-3c15-10 35 4 52 0l24-8c10-3 15-14 24-20 11-6 28 0 32 13 2 7 2 15 8 19 7 5 20-2 23 9-21 9-43 1-65 1-31 1-61 1-92-4z" class="K"/><path d="M627 886l2-2c5-9-6-21-9-28-4-12-2-26 1-37 2-10 9-16 12-25 5-14-10-34-21-41-24-16-17 24-27 31-4 2-8 1-11 2-14 2-5 16-9 24-1 3-4 5-7 8-11 11 16 17-8 28-6 2-13 8-9 12l5 3c7 4 7 13 5 20-1 7 6 13 9 19 3 7 1 17 12 17 8 0 14-5 20-9l19-13c4-5 11-5 16-9z" class="J"/><g fill="#fff"><path d="M571 924h-1l-1-2 32-118a1 1 0 013 1l-32 118-1 1z"/><path d="M592 842l-1-1-6-23 1-2 2 1 6 23a1 1 0 01-2 2zM580 885l-1-1-6-23 1-2 2 1 6 23a1 1 0 01-2 2zM588 865a1 1 0 01-1-3l20-10a1 1 0 011 2l-19 11h-1z"/></g><path d="M783 571l11-3-8 9z" class="I"/><path d="M741 601l-10 11c-4 3-11 4-14 7 9 10 31 3 40-2 13-6 24-18 28-32 3-7 3-16-3-21-3-3-6-4-10-5-6-1-13-2-19 0-8 3 1 3 3 7 2 5-2 13-4 17l-11 18z" class="J"/><circle cx="774.8" cy="568.2" r="2.3" class="I"/><path d="M736 572c-6-2-12-3-17-8-2-2-5-6-8-6h-2v2c0 4 0 8 2 12 2 3 5 7 9 7h1v4c-1 1-3 1-3 3l2 3h5c-1 2-1 6 1 7h7l1 3c1 2 4 4 6 4l8-2c7-3 14-9 9-15-5-7-14-11-21-14z" class="L"/><path d="M1097 508l-8-2 5 7z" class="I"/><path d="M1128 530l7 8c3 3 8 3 11 6-7 7-23 2-30-2-10-5-18-13-21-24-2-5-2-12 2-16l8-3c4-1 9-2 14 0 6 3-1 2-2 5-2 4 1 10 3 13l8 13z" class="J"/><circle cx="1102.8" cy="505.8" r="1.7" class="I"/><path d="M1132 509c4-2 9-3 12-6 2-2 4-5 6-5h1l1 2-2 8c-1 2-3 6-6 6h-1v3l2 2-2 2h-3c0 2 1 4-1 5l-5 1-1 1c-1 2-3 3-5 3-2 1-4 0-6-1-4-2-9-6-6-11 4-5 10-8 16-10z" class="L"/><path d="M1165 623l-13 2 12 6z" class="I"/><path d="M1220 637l15 8c5 2 13 0 17 2-5 14-30 16-42 14-16-1-32-9-42-22-5-6-9-16-6-23 2-4 6-7 9-9 6-4 13-8 19-8 11 0 1 4 0 9 0 5 8 13 12 16 6 5 12 10 18 13z" class="J"/><circle cx="1172" cy="617.5" r="2.6" class="I"/><path d="M1214 606c5-5 11-9 14-15 2-4 2-8 6-10h2l1 1c1 5 3 9 2 13 0 5-2 9-6 11l-1 1c-1 1 0 3 2 4l4 2c1 1 0 3-1 4l-5 1c2 3 3 6 1 8s-5 1-6 4v2c-1 3-3 6-5 7-3 2-6 2-9 2-8 0-18-4-15-13 2-8 9-17 16-22z" class="L"/><path fill="#d4a79a" d="M956 580l1 64 48 26 15-30 18-54-9-20z"/><path d="M965 918c-2-1-4 1-8 2l-30 6c-3 0-8 1-10 3-3 3-4 7-5 10-4 14-18 23-28 34-1 1-2 3-1 4l3 1c5 1 11-2 16-4l22-16c4-4 8-8 14-10 2-2 5-2 8-3 10-2 19-6 28-11l-7-14-2-2zm28 3c2-1 4 1 8 2 9 3 19 5 29 6 4 0 8 1 11 3 3 3 3 7 4 10 5 14 19 23 28 34 1 1 2 3 1 4l-2 1c-6 1-11-2-16-4l-22-16c-4-4-9-8-14-10l-9-3c-9-2-19-6-27-11l7-14 2-2z" class="M"/><path fill="#5a54ff" d="M977 943c36-23 79-28 120-39 41-12 83-32 101-70 5-10 7-23-2-29-3-3-7-4-11-5-44-7-88 7-129 25l-28 11c-18 5-37 5-56 5h-67c-14 0-29-1-43-5-9-3-17-8-26-12-20-9-43-14-65-14-10 0-19 1-27 6s-14 13-14 22c1 12 13 21 24 26 37 21 75 36 115 50 15 5 41 11 56 12s22-4 36-6c12-2 10 13 16 23z"/><path d="M1035 884l91-32c-19 1-39 2-57 7-20 6-38 17-57 25s-40 13-60 8l-21-9c-70-25-89-45-112-25 16-7 107 39 135 57 16 10 23-3 37-11 14-9 29-14 44-20z" class="I"/><path d="M959 642l-69 117c-7 13-17 24-28 33-8 7-18 11-27 15-4 2-9 5-13 5-5 0-8-3-12-5h-6c-10 2 4 11 7 9-5 3-10 4-15 5s-10 4-13 9v7l4 2 16 1c14 1 18-6 28-14 11-8 31-16 42-24 12-8 25-18 32-31 13-27 58-108 58-108l-4-21zm41 6s39 51 75 102c8 12 19 23 31 31 8 6 18 9 28 12 4 1 9 4 13 4 5 0 8-4 12-6l5-1c11 1-2 11-5 10l15 4c5 2 10 3 13 7 2 2 3 5 1 7l-4 2-16 3c-13 2-17-5-29-12-11-6-32-13-44-20s-26-15-34-28l-68-102 7-13z" class="M"/><path d="M916 846c11 1 21-2 32-3s22 2 33 4c22 5 42 2 63-9 12-7-8-27-12-35-4-7-6-15-7-23-4-24-5-48-3-72 1-18-5-31-11-48-3-8 1-11-4-18-3-4-16 9-21 8-10-1-22-13-29-6l-13 20c-9 18-18 36-21 56-3 27 4 46-5 72-2 6-4 22-19 49a144 144 0 0017 5z" fill="#f44e4e"/><path d="M991 487s8 17-5 28-29 2-45 12c-17 10-15 22-8 48 9 32 19 31 28 33s11 27 12 38c2 18-14 24-27 32-10 7-17 15-14 28 2 6 4 12 2 17-1 6-7 9-13 10-8 2-20 2-15-8 10-23-9-20-13-38-4-19-13-34 9-46 6-3 13-6 17-13 7-12-4-24-9-35-8-15-11-34-5-51 9-28-1-20 12-42 12-23 57-48 74-13z" class="I"/><path d="M945 519s-20 13-15 46c6 33 36 62 45 61 28-3 31-22 41-38 13-19-6-69-6-69l-21-13-44 13z" class="M"/><g class="I"><path d="M975 507s14 5 26 24c11 19 25 27 16 51l-11 30c-5 12-9 24-11 37-2 11 4 14 10 21 14 13 14 31 26 44 8 9 28 18 40 11 10-8-22-3-16-34s9-44-10-53-10-11 0-30-15-19-5-52c11-38 1-81-56-69s-9 20-9 20z"/><path d="M961 544c17-10 13-18 25-29 13-11 5-28 5-28-17-35-62-10-74 13-13 22-3 14-12 42-7 20 0 40 5 51l20 2c-11-41 19-44 31-51z"/></g></svg>